<svg width="157" height="19" viewBox="0 0 157 19" fill="none" xmlns="http://www.w3.org/2000/svg">
<path d="M3.05469 15.6211V4.46484C3.05469 3.61328 2.38281 3.17969 1.03906 3.16406C0.929688 3.16406 0.875 2.98438 0.875 2.625C0.875 2.26562 0.929688 2.08594 1.03906 2.08594C2.15625 2.13281 3.08594 2.15625 3.82812 2.15625C4.57031 2.15625 5.42188 2.14453 6.38281 2.12109C7.34375 2.09766 8.11328 2.08594 8.69141 2.08594C11.2695 2.08594 13.4141 2.74609 15.125 4.06641C16.8359 5.38672 17.6914 7.19922 17.6914 9.50391C17.6914 12.1445 16.9141 14.2344 15.3594 15.7734C13.8125 17.3047 11.7734 18.0703 9.24219 18.0703C8.75 18.0703 7.9375 18.0586 6.80469 18.0352C5.67969 18.0117 4.71094 18 3.89844 18C3.09375 18 2.17969 18.0234 1.15625 18.0703C1.03906 18.0703 0.980469 17.8906 0.980469 17.5312C0.980469 17.1719 1.03906 16.9922 1.15625 16.9922C2.42188 16.9922 3.05469 16.5352 3.05469 15.6211ZM5.90234 14.8125C5.90234 15.9844 6.23828 16.7109 6.91016 16.9922C7.21484 17.1016 7.72656 17.1562 8.44531 17.1562C10.1406 17.1562 11.5703 16.4922 12.7344 15.1641C13.9062 13.8359 14.4922 11.9805 14.4922 9.59766C14.4922 7.93359 13.8945 6.41797 12.6992 5.05078C11.5117 3.68359 9.85547 3 7.73047 3H6.79297C6.19922 3 5.90234 3.3125 5.90234 3.9375V14.8125ZM24.4297 18.0938C23.7734 18.0312 22.957 18 21.9805 18C20.8633 18 19.9727 18.0312 19.3086 18.0938C19.1992 18.0938 19.1406 17.9453 19.1328 17.6484C19.125 17.3516 19.1836 17.2031 19.3086 17.2031C20.1211 17.2031 20.5312 16.9102 20.5391 16.3242V11.4727C20.5391 10.4961 20.1797 10.0078 19.4609 10.0078C19.3359 10.0078 19.2695 9.86328 19.2617 9.57422C19.2617 9.28516 19.3281 9.14062 19.4609 9.14062C19.8438 9.14062 20.5703 8.87891 21.6406 8.35547C22.1328 8.11328 22.4609 7.92188 22.625 7.78125C22.7188 7.70312 22.8398 7.66016 22.9883 7.65234C23.2148 7.65234 23.3164 7.75781 23.293 7.96875C23.2461 8.65625 23.2227 9.33594 23.2227 10.0078V16.3242C23.2227 16.918 23.625 17.2109 24.4297 17.2031C24.5391 17.2031 24.5938 17.3516 24.5938 17.6484C24.5938 17.9453 24.5391 18.0938 24.4297 18.0938ZM23.3164 4.10156C23.3164 4.66406 23.0859 5.10547 22.625 5.42578C22.3203 5.63672 21.9844 5.73047 21.6172 5.70703C21.0234 5.70703 20.5664 5.48438 20.2461 5.03906C20.0352 4.75 19.9336 4.4375 19.9414 4.10156C19.9414 3.55469 20.1641 3.125 20.6094 2.8125C20.9141 2.58594 21.25 2.48047 21.6172 2.49609C22.2266 2.49609 22.6914 2.71875 23.0117 3.16406C23.2148 3.46875 23.3164 3.78125 23.3164 4.10156ZM43.332 18.0938C42.707 18.0312 41.8438 18 40.7422 18C39.6875 18 38.8477 18.0312 38.2227 18.0938C38.0977 18.0938 38.0352 17.9453 38.0352 17.6484C38.0352 17.3516 38.0977 17.2031 38.2227 17.2031C39.0039 17.2031 39.3945 16.9414 39.3945 16.418V10.8516C39.3945 9.66406 38.8047 9.07031 37.625 9.07031C37.0781 9.07031 36.6133 9.3125 36.2305 9.79688C35.8789 10.2266 35.7031 10.7383 35.7031 11.332V16.3711C35.7031 16.9336 36.1094 17.2109 36.9219 17.2031C37.0469 17.2031 37.1094 17.3516 37.1094 17.6484C37.1172 17.9453 37.0547 18.0938 36.9219 18.0938C36.2969 18.0312 35.4414 18 34.3555 18C33.332 18 32.4922 18.0312 31.8359 18.0938C31.7266 18.0938 31.6719 17.9453 31.6719 17.6484C31.6719 17.3516 31.7266 17.2031 31.8359 17.2031C32.6172 17.2031 33.0117 16.957 33.0195 16.4648V11.3789C33.0195 10.3398 32.8438 9.66016 32.4922 9.33984C32.2812 9.16016 31.9023 9.07031 31.3555 9.07031C30.957 9.07031 30.582 9.19922 30.2305 9.45703C29.6367 9.90234 29.3398 10.3906 29.3398 10.9219V16.4414C29.3398 16.957 29.7266 17.2109 30.5 17.2031C30.6094 17.2031 30.668 17.3516 30.6758 17.6484C30.6836 17.9453 30.625 18.0938 30.5 18.0938C29.8438 18.0312 28.9844 18 27.9219 18C26.8516 18 25.9883 18.0312 25.332 18.0938C25.2227 18.0938 25.168 17.9453 25.168 17.6484C25.168 17.3516 25.2227 17.2031 25.332 17.2031C26.2148 17.2031 26.6562 16.9336 26.6562 16.3945V11.543C26.6562 10.5195 26.2969 10.0078 25.5781 10.0078C25.4531 10.0078 25.3867 9.86328 25.3789 9.57422C25.3789 9.28516 25.4453 9.14062 25.5781 9.14062C25.9609 9.14062 26.6875 8.87891 27.7578 8.35547C28.25 8.11328 28.5781 7.92188 28.7422 7.78125C28.8359 7.70312 28.9492 7.66016 29.082 7.65234C29.3086 7.65234 29.418 7.75 29.4102 7.94531L29.3398 8.76562C29.3398 8.90625 29.3711 8.98438 29.4336 9C29.4961 9 29.5703 8.96094 29.6562 8.88281C30.2969 8.16406 31.1523 7.80469 32.2227 7.80469C33.3242 7.80469 34.1641 8.30078 34.7422 9.29297C34.8047 9.41797 34.8672 9.48047 34.9297 9.48047C35.0078 9.48047 35.1133 9.41016 35.2461 9.26953C35.8711 8.61328 36.5977 8.17188 37.4258 7.94531C37.7617 7.85156 38.0898 7.80469 38.4102 7.80469C39.4023 7.80469 40.2031 8.07422 40.8125 8.61328C41.6641 9.36328 42.0898 10.332 42.0898 11.5195V16.3711C42.0898 16.9336 42.5039 17.2109 43.332 17.2031C43.457 17.2031 43.5195 17.3516 43.5195 17.6484C43.5195 17.9453 43.457 18.0938 43.332 18.0938ZM49.625 18.0938C48.9688 18.0312 48.1523 18 47.1758 18C46.0586 18 45.168 18.0312 44.5039 18.0938C44.3945 18.0938 44.3359 17.9453 44.3281 17.6484C44.3203 17.3516 44.3789 17.2031 44.5039 17.2031C45.3164 17.2031 45.7266 16.9102 45.7344 16.3242V11.4727C45.7344 10.4961 45.375 10.0078 44.6562 10.0078C44.5312 10.0078 44.4648 9.86328 44.457 9.57422C44.457 9.28516 44.5234 9.14062 44.6562 9.14062C45.0391 9.14062 45.7656 8.87891 46.8359 8.35547C47.3281 8.11328 47.6562 7.92188 47.8203 7.78125C47.9141 7.70312 48.0352 7.66016 48.1836 7.65234C48.4102 7.65234 48.5117 7.75781 48.4883 7.96875C48.4414 8.65625 48.418 9.33594 48.418 10.0078V16.3242C48.418 16.918 48.8203 17.2109 49.625 17.2031C49.7344 17.2031 49.7891 17.3516 49.7891 17.6484C49.7891 17.9453 49.7344 18.0938 49.625 18.0938ZM48.5117 4.10156C48.5117 4.66406 48.2812 5.10547 47.8203 5.42578C47.5156 5.63672 47.1797 5.73047 46.8125 5.70703C46.2188 5.70703 45.7617 5.48438 45.4414 5.03906C45.2305 4.75 45.1289 4.4375 45.1367 4.10156C45.1367 3.55469 45.3594 3.125 45.8047 2.8125C46.1094 2.58594 46.4453 2.48047 46.8125 2.49609C47.4219 2.49609 47.8867 2.71875 48.207 3.16406C48.4102 3.46875 48.5117 3.78125 48.5117 4.10156ZM57.9688 16.9453C57.1172 17.8281 56.0469 18.2695 54.7578 18.2695C53.0469 18.2539 52.0625 17.5391 51.8047 16.125C51.7578 15.8672 51.7344 15.582 51.7344 15.2695V9.62109C51.7344 9.37891 51.6133 9.26172 51.3711 9.26953H50.7266C50.6016 9.26953 50.5352 9.125 50.5273 8.83594C50.5273 8.54688 50.5938 8.40234 50.7266 8.40234C51.2031 8.40234 51.7227 8.16797 52.2852 7.69922C52.832 7.25391 53.1914 6.76562 53.3633 6.23438C53.3945 6.14062 53.5625 6.13281 53.8672 6.21094C54.2031 6.30469 54.3945 6.42578 54.4414 6.57422V7.67578C54.4414 7.91797 54.5625 8.03906 54.8047 8.03906H57.3242C57.4336 8.03906 57.4883 8.24609 57.4883 8.66016C57.4883 9.06641 57.4336 9.26953 57.3242 9.26953H54.8047C54.5625 9.26953 54.4414 9.38672 54.4414 9.62109V14.4961C54.4414 15.4414 54.5781 16.0664 54.8516 16.3711C55.0625 16.6133 55.3984 16.7305 55.8594 16.7227C56.2578 16.7227 56.7539 16.5391 57.3477 16.1719C57.4258 16.1094 57.5781 16.207 57.8047 16.4648C57.9453 16.6445 58.0078 16.7812 57.9922 16.875C57.9922 16.9062 57.9844 16.9297 57.9688 16.9453ZM66.6406 9.1875C66.6406 9.64844 66.4805 10.0195 66.1602 10.3008C65.9492 10.4961 65.707 10.5898 65.4336 10.582C65.0352 10.582 64.6367 10.3828 64.2383 9.98438C64.0586 9.80469 63.8672 9.71484 63.6641 9.71484C63.3281 9.71484 63.0312 9.94141 62.7734 10.3945C62.5156 10.8242 62.3867 11.3203 62.3867 11.8828V16.3242C62.3867 16.918 62.7891 17.2109 63.5938 17.2031C63.7031 17.2031 63.7617 17.3516 63.7695 17.6484C63.7773 17.9453 63.7188 18.0938 63.5938 18.0938C62.9375 18.0312 62.1211 18 61.1445 18C60.0273 18 59.1367 18.0312 58.4727 18.0938C58.3633 18.0938 58.3047 17.9453 58.2969 17.6484C58.2891 17.3516 58.3477 17.2031 58.4727 17.2031C59.2852 17.2031 59.6953 16.9102 59.7031 16.3242V11.5664C59.7031 10.5273 59.3438 10.0078 58.625 10.0078C58.5 10.0078 58.4336 9.86328 58.4258 9.57422C58.4258 9.28516 58.4922 9.14062 58.625 9.14062C59.0234 9.14062 59.7656 8.87109 60.8516 8.33203C61.3125 8.08984 61.625 7.90625 61.7891 7.78125C61.8828 7.70312 61.9961 7.66016 62.1289 7.65234C62.3242 7.65234 62.4336 7.73438 62.457 7.89844L62.3867 8.76562C62.3867 8.94531 62.4375 9.03516 62.5391 9.03516C62.6484 9.02734 62.7891 8.92578 62.9609 8.73047C63.4922 8.10547 64.1484 7.79688 64.9297 7.80469C65.4766 7.80469 65.9258 7.98047 66.2773 8.33203C66.5195 8.56641 66.6406 8.85156 66.6406 9.1875ZM72.4297 18.0938C71.7734 18.0312 70.957 18 69.9805 18C68.8633 18 67.9727 18.0312 67.3086 18.0938C67.1992 18.0938 67.1406 17.9453 67.1328 17.6484C67.125 17.3516 67.1836 17.2031 67.3086 17.2031C68.1211 17.2031 68.5312 16.9102 68.5391 16.3242V11.4727C68.5391 10.4961 68.1797 10.0078 67.4609 10.0078C67.3359 10.0078 67.2695 9.86328 67.2617 9.57422C67.2617 9.28516 67.3281 9.14062 67.4609 9.14062C67.8438 9.14062 68.5703 8.87891 69.6406 8.35547C70.1328 8.11328 70.4609 7.92188 70.625 7.78125C70.7188 7.70312 70.8398 7.66016 70.9883 7.65234C71.2148 7.65234 71.3164 7.75781 71.293 7.96875C71.2461 8.65625 71.2227 9.33594 71.2227 10.0078V16.3242C71.2227 16.918 71.625 17.2109 72.4297 17.2031C72.5391 17.2031 72.5938 17.3516 72.5938 17.6484C72.5938 17.9453 72.5391 18.0938 72.4297 18.0938ZM71.3164 4.10156C71.3164 4.66406 71.0859 5.10547 70.625 5.42578C70.3203 5.63672 69.9844 5.73047 69.6172 5.70703C69.0234 5.70703 68.5664 5.48438 68.2461 5.03906C68.0352 4.75 67.9336 4.4375 67.9414 4.10156C67.9414 3.55469 68.1641 3.125 68.6094 2.8125C68.9141 2.58594 69.25 2.48047 69.6172 2.49609C70.2266 2.49609 70.6914 2.71875 71.0117 3.16406C71.2148 3.46875 71.3164 3.78125 71.3164 4.10156ZM84.9102 15.6211C84.9102 16.5352 85.5664 16.9922 86.8789 16.9922C86.9883 16.9922 87.043 17.1719 87.043 17.5312C87.0508 17.8906 86.9961 18.0703 86.8789 18.0703C85.8867 18.0234 84.7578 18 83.4922 18C82.3438 18 81.25 18.0234 80.2109 18.0703C80.1172 18.0703 80.0703 17.8906 80.0703 17.5312C80.0703 17.1719 80.1172 16.9922 80.2109 16.9922C81.4453 16.9922 82.0625 16.5352 82.0625 15.6211V4.46484C82.0625 3.61328 81.3984 3.17969 80.0703 3.16406C79.9609 3.16406 79.9023 2.98438 79.8945 2.625C79.8945 2.26562 79.9531 2.08594 80.0703 2.08594C81.1875 2.13281 82.3047 2.15625 83.4219 2.15625C83.8828 2.15625 84.4336 2.14453 85.0742 2.12109C85.7227 2.09766 86.3633 2.08594 86.9961 2.08594C88.6914 2.08594 90.1094 2.48047 91.25 3.26953C92.4844 4.13672 93.1016 5.26172 93.1016 6.64453C93.1016 8.12891 92.4297 9.26562 91.0859 10.0547C90 10.6953 88.6133 11.0156 86.9258 11.0156C86.2227 11.0156 85.6875 11 85.3203 10.9688C85.0469 10.9531 84.9102 11.0742 84.9102 11.332V15.6211ZM90.1016 6.64453C90.1016 5.69922 89.7812 4.89844 89.1406 4.24219C88.375 3.42969 87.2852 3.02344 85.8711 3.02344C85.3555 3.02344 85.0508 3.07813 84.957 3.1875C84.9258 3.23438 84.9102 3.29297 84.9102 3.36328V9.59766C84.9102 9.83984 85.0312 9.98438 85.2734 10.0312C85.5625 10.0625 85.875 10.0781 86.2109 10.0781C88.1641 10.0781 89.3789 9.40625 89.8555 8.0625C90.0195 7.64844 90.1016 7.17578 90.1016 6.64453ZM101.785 10.8281C101.785 11.4219 101.434 11.7148 100.73 11.707H96.2188C95.9297 11.707 95.7852 11.8125 95.7852 12.0234C95.7852 13.8828 96.2266 15.1875 97.1094 15.9375C97.5859 16.3516 98.1758 16.5586 98.8789 16.5586C99.5195 16.5586 100.168 16.3438 100.824 15.9141C100.98 15.8359 101.172 15.9375 101.398 16.2188C101.609 16.4922 101.668 16.6719 101.574 16.7578C101.207 17.1406 100.684 17.4844 100.004 17.7891C99.3164 18.1094 98.5273 18.2695 97.6367 18.2695C96.582 18.2695 95.6367 17.8438 94.8008 16.9922C93.6836 15.875 93.1172 14.5078 93.1016 12.8906C93.1016 11.5938 93.5156 10.457 94.3438 9.48047C95.3047 8.36328 96.4258 7.80469 97.707 7.80469C99.0977 7.80469 100.199 8.26562 101.012 9.1875C101.527 9.89844 101.785 10.4453 101.785 10.8281ZM95.9258 10.3477C95.9258 10.5586 96.0703 10.6602 96.3594 10.6523H98.7383C99.0273 10.6523 99.1719 10.5586 99.1719 10.3711C99.1719 9.83984 98.9531 9.39844 98.5156 9.04688C98.2422 8.82031 97.9805 8.71484 97.7305 8.73047C97.2383 8.73047 96.7969 8.89844 96.4062 9.23438C96.0859 9.54688 95.9258 9.91797 95.9258 10.3477ZM110.586 16.9453C109.734 17.8281 108.664 18.2695 107.375 18.2695C105.664 18.2539 104.68 17.5391 104.422 16.125C104.375 15.8672 104.352 15.582 104.352 15.2695V9.62109C104.352 9.37891 104.23 9.26172 103.988 9.26953H103.344C103.219 9.26953 103.152 9.125 103.145 8.83594C103.145 8.54688 103.211 8.40234 103.344 8.40234C103.82 8.40234 104.34 8.16797 104.902 7.69922C105.449 7.25391 105.809 6.76562 105.98 6.23438C106.012 6.14062 106.18 6.13281 106.484 6.21094C106.82 6.30469 107.012 6.42578 107.059 6.57422V7.67578C107.059 7.91797 107.18 8.03906 107.422 8.03906H109.941C110.051 8.03906 110.105 8.24609 110.105 8.66016C110.105 9.06641 110.051 9.26953 109.941 9.26953H107.422C107.18 9.26953 107.059 9.38672 107.059 9.62109V14.4961C107.059 15.4414 107.195 16.0664 107.469 16.3711C107.68 16.6133 108.016 16.7305 108.477 16.7227C108.875 16.7227 109.371 16.5391 109.965 16.1719C110.043 16.1094 110.195 16.207 110.422 16.4648C110.562 16.6445 110.625 16.7812 110.609 16.875C110.609 16.9062 110.602 16.9297 110.586 16.9453ZM119.258 9.1875C119.258 9.64844 119.098 10.0195 118.777 10.3008C118.566 10.4961 118.324 10.5898 118.051 10.582C117.652 10.582 117.254 10.3828 116.855 9.98438C116.676 9.80469 116.484 9.71484 116.281 9.71484C115.945 9.71484 115.648 9.94141 115.391 10.3945C115.133 10.8242 115.004 11.3203 115.004 11.8828V16.3242C115.004 16.918 115.406 17.2109 116.211 17.2031C116.32 17.2031 116.379 17.3516 116.387 17.6484C116.395 17.9453 116.336 18.0938 116.211 18.0938C115.555 18.0312 114.738 18 113.762 18C112.645 18 111.754 18.0312 111.09 18.0938C110.98 18.0938 110.922 17.9453 110.914 17.6484C110.906 17.3516 110.965 17.2031 111.09 17.2031C111.902 17.2031 112.312 16.9102 112.32 16.3242V11.5664C112.32 10.5273 111.961 10.0078 111.242 10.0078C111.117 10.0078 111.051 9.86328 111.043 9.57422C111.043 9.28516 111.109 9.14062 111.242 9.14062C111.641 9.14062 112.383 8.87109 113.469 8.33203C113.93 8.08984 114.242 7.90625 114.406 7.78125C114.5 7.70312 114.613 7.66016 114.746 7.65234C114.941 7.65234 115.051 7.73438 115.074 7.89844L115.004 8.76562C115.004 8.94531 115.055 9.03516 115.156 9.03516C115.266 9.02734 115.406 8.92578 115.578 8.73047C116.109 8.10547 116.766 7.79688 117.547 7.80469C118.094 7.80469 118.543 7.98047 118.895 8.33203C119.137 8.56641 119.258 8.85156 119.258 9.1875ZM129.383 16.9688C128.938 17.8516 128.195 18.293 127.156 18.293C126.438 18.293 125.805 17.9727 125.258 17.332C125.148 17.1914 125.07 17.1172 125.023 17.1094C124.93 17.1094 124.816 17.1758 124.684 17.3086C124.043 17.9492 123.266 18.2695 122.352 18.2695C121.375 18.2695 120.68 17.9414 120.266 17.2852C120.055 16.9492 119.957 16.5547 119.973 16.1016C119.973 15.1562 120.797 14.2539 122.445 13.3945L124.227 12.5508C124.5 12.3945 124.637 12.2109 124.637 12V9.77344C124.637 9.21094 124.227 8.92969 123.406 8.92969C122.781 8.92969 122.328 9.12891 122.047 9.52734C121.984 9.63672 121.941 9.93359 121.918 10.418C121.918 10.6914 121.902 10.8906 121.871 11.0156C121.676 11.7031 121.316 12.0469 120.793 12.0469C120.09 12.0469 119.738 11.7422 119.738 11.1328C119.738 10.6016 119.953 10.043 120.383 9.45703C120.625 9.12109 120.883 8.86328 121.156 8.68359C122.102 8.08984 123.133 7.79688 124.25 7.80469C125.133 7.80469 125.895 8.02734 126.535 8.47266C127.051 8.80859 127.312 9.22266 127.32 9.71484V15.668C127.32 16.5664 127.586 17.0078 128.117 16.9922C128.359 17.0078 128.637 16.8711 128.949 16.582C129.012 16.5195 129.117 16.5508 129.266 16.6758C129.375 16.793 129.414 16.8906 129.383 16.9688ZM124.637 15.7383V13.6055C124.637 13.4258 124.578 13.3398 124.461 13.3477C124.414 13.3477 124.367 13.3555 124.32 13.3711C123.219 13.9336 122.668 14.6758 122.668 15.5977C122.668 16.5117 122.949 16.9688 123.512 16.9688C124.262 16.9609 124.637 16.5508 124.637 15.7383ZM141.934 18.0938C141.309 18.0312 140.41 18 139.238 18C138.074 18 137.164 18.0312 136.508 18.0938C136.398 18.0938 136.34 17.9453 136.332 17.6484C136.324 17.3516 136.383 17.2031 136.508 17.2031C137.086 17.2031 137.375 17.0938 137.375 16.875C137.375 16.75 137.273 16.5586 137.07 16.3008L134.785 13.6758C134.59 13.4336 134.359 13.3164 134.094 13.3242C133.969 13.3242 133.902 13.457 133.895 13.7227V16.3242C133.895 16.918 134.32 17.2109 135.172 17.2031C135.281 17.2031 135.336 17.3516 135.336 17.6484C135.336 17.9453 135.281 18.0938 135.172 18.0938C134.516 18.0312 133.676 18 132.652 18C131.449 18 130.52 18.0312 129.863 18.0938C129.754 18.0938 129.699 17.9453 129.699 17.6484C129.699 17.3516 129.754 17.2031 129.863 17.2031C130.762 17.2031 131.211 16.9258 131.211 16.3711V4.39453C131.148 3.46484 130.789 2.97656 130.133 2.92969C130.008 2.92969 129.941 2.78516 129.934 2.49609C129.934 2.20703 130 2.0625 130.133 2.0625C130.516 2.0625 131.234 1.80078 132.289 1.27734C132.805 1.01953 133.141 0.824219 133.297 0.691406C133.391 0.613281 133.504 0.574219 133.637 0.574219C133.848 0.574219 133.957 0.679688 133.965 0.890625C133.918 1.5625 133.895 2.24219 133.895 2.92969V11.8125C133.895 12.1016 133.977 12.2422 134.141 12.2344C134.477 12.2344 134.789 12.0859 135.078 11.7891L136.871 9.79688C137.129 9.50781 137.258 9.29688 137.258 9.16406C137.258 8.92188 136.93 8.80469 136.273 8.8125C136.148 8.8125 136.086 8.67188 136.086 8.39062C136.086 8.10938 136.148 7.96875 136.273 7.96875C136.734 8.01562 137.582 8.03906 138.816 8.03906C139.902 8.03906 140.695 8.01562 141.195 7.96875C141.305 7.96875 141.359 8.10938 141.359 8.39062C141.359 8.67188 141.305 8.8125 141.195 8.8125C140.383 8.8125 139.672 9.08984 139.062 9.64453L136.613 11.8594C136.535 11.9375 136.492 12.0078 136.484 12.0703C136.484 12.1797 136.527 12.2852 136.613 12.3867L140.469 16.582C140.836 16.9961 141.324 17.2031 141.934 17.2031C142.059 17.2031 142.121 17.3516 142.121 17.6484C142.121 17.9453 142.059 18.0938 141.934 18.0938ZM147.664 18.0938C147.008 18.0312 146.191 18 145.215 18C144.098 18 143.207 18.0312 142.543 18.0938C142.434 18.0938 142.375 17.9453 142.367 17.6484C142.359 17.3516 142.418 17.2031 142.543 17.2031C143.355 17.2031 143.766 16.9102 143.773 16.3242V11.4727C143.773 10.4961 143.414 10.0078 142.695 10.0078C142.57 10.0078 142.504 9.86328 142.496 9.57422C142.496 9.28516 142.562 9.14062 142.695 9.14062C143.078 9.14062 143.805 8.87891 144.875 8.35547C145.367 8.11328 145.695 7.92188 145.859 7.78125C145.953 7.70312 146.074 7.66016 146.223 7.65234C146.449 7.65234 146.551 7.75781 146.527 7.96875C146.48 8.65625 146.457 9.33594 146.457 10.0078V16.3242C146.457 16.918 146.859 17.2109 147.664 17.2031C147.773 17.2031 147.828 17.3516 147.828 17.6484C147.828 17.9453 147.773 18.0938 147.664 18.0938ZM146.551 4.10156C146.551 4.66406 146.32 5.10547 145.859 5.42578C145.555 5.63672 145.219 5.73047 144.852 5.70703C144.258 5.70703 143.801 5.48438 143.48 5.03906C143.27 4.75 143.168 4.4375 143.176 4.10156C143.176 3.55469 143.398 3.125 143.844 2.8125C144.148 2.58594 144.484 2.48047 144.852 2.49609C145.461 2.49609 145.926 2.71875 146.246 3.16406C146.449 3.46875 146.551 3.78125 146.551 4.10156ZM152.023 18.2695C150.891 18.2695 149.953 18.0352 149.211 17.5664C148.984 17.0352 148.875 16.1719 148.883 14.9766C148.883 14.8359 149.02 14.7656 149.293 14.7656C149.598 14.7656 149.758 14.8281 149.773 14.9531C149.805 15.3672 150.066 15.8633 150.559 16.4414C151.074 17.0352 151.691 17.332 152.41 17.332C152.793 17.332 153.145 17.1719 153.465 16.8516C153.723 16.5781 153.852 16.2812 153.852 15.9609C153.852 15.0156 153.18 14.3672 151.836 14.0156C150.461 13.6484 149.531 13.0664 149.047 12.2695C148.805 11.8711 148.691 11.3906 148.707 10.8281C148.707 9.92969 149.102 9.19141 149.891 8.61328C150.609 8.06641 151.48 7.79688 152.504 7.80469C153.465 7.80469 154.312 7.94531 155.047 8.22656C155.352 9.03906 155.504 9.78516 155.504 10.4648C155.504 10.6055 155.383 10.6758 155.141 10.6758C154.883 10.6758 154.75 10.6367 154.742 10.5586C154.602 10.1602 154.289 9.71875 153.805 9.23438C153.484 8.91406 152.996 8.75781 152.34 8.76562C151.863 8.76562 151.477 8.96484 151.18 9.36328C151 9.60547 150.914 9.85156 150.922 10.1016C150.922 10.8828 151.578 11.4375 152.891 11.7656C154.141 12.0859 155.012 12.5391 155.504 13.125C155.887 13.6016 156.086 14.2188 156.102 14.9766C156.102 16.0156 155.672 16.8555 154.812 17.4961C154.07 18.0273 153.141 18.2852 152.023 18.2695Z" fill="#111B2D"/>
</svg>
