<svg width="74" height="17" viewBox="0 0 74 17" fill="none" xmlns="http://www.w3.org/2000/svg">
<path d="M19.8438 5.53516C19.8438 8.02734 18.7578 10.4102 16.5859 12.6836C14.4219 14.957 11.8281 16.0938 8.80469 16.0938C8.46875 16.0938 7.70312 16.0781 6.50781 16.0469C5.3125 16.0156 4.43359 16 3.87109 16C3.31641 16 2.30469 16.0312 0.835938 16.0938C0.773438 16.0938 0.738281 16.043 0.730469 15.9414C0.714844 15.8398 0.742188 15.6562 0.8125 15.3906C0.875 15.125 0.960938 14.9922 1.07031 14.9922C1.69531 14.9922 2.14062 14.9453 2.40625 14.8516C2.67188 14.75 2.87109 14.5977 3.00391 14.3945C3.13672 14.1836 3.25391 13.9258 3.35547 13.6211L6.70703 2.48828C6.76953 2.26172 6.80469 2.0625 6.8125 1.89062C6.8125 1.69531 6.71094 1.53125 6.50781 1.39844C6.30469 1.25781 5.82812 1.1875 5.07812 1.1875C4.95312 1.1875 4.93359 1.00391 5.01953 0.636719C5.10547 0.269531 5.20703 0.0859375 5.32422 0.0859375C6.02734 0.117188 6.92969 0.132812 8.03125 0.132812C9.13281 0.132812 10.1055 0.125 10.9492 0.109375C11.8008 0.09375 12.4219 0.0859375 12.8125 0.0859375C14.9531 0.0859375 16.6602 0.5625 17.9336 1.51562C19.207 2.46875 19.8438 3.80859 19.8438 5.53516ZM16.7969 5.82812C16.7969 4.35938 16.3398 3.1875 15.4258 2.3125C14.5117 1.4375 13.3125 1 11.8281 1C11.3125 1 10.9023 1.01562 10.5977 1.04688C10.293 1.07813 10.0703 1.17578 9.92969 1.33984C9.79688 1.49609 9.68359 1.73438 9.58984 2.05469L6.28516 12.9062C6.19141 13.2422 6.14062 13.5391 6.13281 13.7969C6.13281 14.7266 6.82031 15.1797 8.19531 15.1562C10.3203 15.1562 12.2852 14.1562 14.0898 12.1562C15.8945 10.1484 16.7969 8.03906 16.7969 5.82812ZM23.0781 13.8906C23.0469 14 23.0312 14.0859 23.0312 14.1484C23.0312 14.2734 23.1289 14.3398 23.3242 14.3477C23.5273 14.3477 23.875 14.0352 24.3672 13.4102C24.4453 13.3008 24.5898 13.3398 24.8008 13.5273C24.957 13.668 25.0469 13.7812 25.0703 13.8672C25.0703 13.8984 25.0547 13.9297 25.0234 13.9609C24.5312 14.5859 23.9688 15.1367 23.3359 15.6133C22.7109 16.082 22.1836 16.3164 21.7539 16.3164C20.9727 16.3164 20.582 15.8281 20.582 14.8516C20.582 14.5781 20.6211 14.3047 20.6992 14.0312L22.4219 8.41797C22.4531 8.32422 22.4727 8.24219 22.4805 8.17188C22.4805 8.01562 22.4023 7.9375 22.2461 7.9375C22.0977 7.9375 21.7188 8.25781 21.1094 8.89844C21.0156 8.99219 20.8711 8.93359 20.6758 8.72266C20.5352 8.58203 20.4648 8.48047 20.4648 8.41797C20.4648 8.40234 20.4727 8.37109 20.4883 8.32422C20.9805 7.71484 21.5352 7.17969 22.1523 6.71875C22.7695 6.25 23.293 6.01562 23.7227 6.01562C24.5352 6.01562 24.9453 6.51172 24.9531 7.50391C24.9531 7.69922 24.9023 7.94531 24.8008 8.24219L23.0781 13.8906ZM26.6289 2.62891C26.6289 3.04297 26.4609 3.40234 26.125 3.70703C25.7891 4.01172 25.4141 4.16406 25 4.16406C23.8984 4.16406 23.3438 3.57422 23.3359 2.39453C23.3359 2.01172 23.5078 1.66406 23.8516 1.35156C24.1953 1.03906 24.5781 0.882812 25 0.882812C26.0859 0.875 26.6289 1.45703 26.6289 2.62891ZM40.9961 13.293C40.8398 13.8242 40.7617 14.1172 40.7617 14.1719C40.7617 14.2969 40.8555 14.3633 41.043 14.3711C41.2383 14.3711 41.6406 14.0273 42.25 13.3398C42.2812 13.3086 42.3203 13.293 42.3672 13.293C42.4453 13.293 42.5547 13.3594 42.6953 13.4922C42.8438 13.625 42.918 13.7344 42.918 13.8203C42.918 13.8516 42.9023 13.8828 42.8711 13.9141C41.543 15.5156 40.3906 16.3164 39.4141 16.3164C38.6641 16.3164 38.2891 15.7852 38.2891 14.7227C38.2891 14.5664 38.3359 14.3359 38.4297 14.0312L39.918 9.20312C40.1133 8.5625 40.2109 8.08594 40.2109 7.77344C40.2109 7.45312 40.1055 7.29297 39.8945 7.29297C39.5117 7.29297 39.0469 7.625 38.5 8.28906C37.9609 8.95312 37.4023 9.77734 36.8242 10.7617C36.2461 11.7383 35.4219 13.5156 34.3516 16.0938C34.2734 16.2734 33.8477 16.3672 33.0742 16.375C32.3086 16.3828 31.9648 16.2578 32.043 16L33.9648 9.73047C34.3008 8.64453 34.4688 7.97266 34.4688 7.71484C34.4688 7.42578 34.375 7.28516 34.1875 7.29297C33.8828 7.29297 33.4922 7.54688 33.0156 8.05469C32.5469 8.55469 32.0156 9.26953 31.4219 10.1992C30.8281 11.1211 29.8828 13.0703 28.5859 16.0469C28.5078 16.2266 28.0938 16.3164 27.3438 16.3164C26.5938 16.3164 26.2422 16.2031 26.2891 15.9766L28.5156 8.80469C28.6094 8.5 28.6562 8.30469 28.6562 8.21875C28.6562 8.02344 28.5625 7.92969 28.375 7.9375C28.1953 7.9375 27.8516 8.25781 27.3438 8.89844C27.3125 8.92969 27.2812 8.95312 27.25 8.96875C27.1719 8.96875 27.0586 8.89844 26.9102 8.75781C26.7695 8.60938 26.6992 8.49609 26.6992 8.41797C26.6992 8.38672 26.707 8.35547 26.7227 8.32422C28.0039 6.78516 29.0977 6.01562 30.0039 6.01562C30.707 6.01562 31.0586 6.44141 31.0586 7.29297C31.0586 7.55078 31.0195 7.8125 30.9414 8.07812L30.3438 10.0938L30.4609 10.1406C31.0859 9.02344 31.8008 8.05859 32.6055 7.24609C33.418 6.42578 34.207 6.01562 34.9727 6.01562C36.0117 6.01562 36.5312 6.53516 36.5312 7.57422C36.5312 8.03516 36.3789 8.80469 36.0742 9.88281L36.0273 10.0938L36.1445 10.1406C37.7305 7.39062 39.2852 6.01562 40.8086 6.01562C41.9102 6.01562 42.4609 6.56641 42.4609 7.66797C42.4609 8.19922 42.3477 8.83984 42.1211 9.58984L40.9961 13.293ZM47.1719 13.8906C47.1406 14 47.125 14.0859 47.125 14.1484C47.125 14.2734 47.2227 14.3398 47.418 14.3477C47.6211 14.3477 47.9688 14.0352 48.4609 13.4102C48.5391 13.3008 48.6836 13.3398 48.8945 13.5273C49.0508 13.668 49.1406 13.7812 49.1641 13.8672C49.1641 13.8984 49.1484 13.9297 49.1172 13.9609C48.625 14.5859 48.0625 15.1367 47.4297 15.6133C46.8047 16.082 46.2773 16.3164 45.8477 16.3164C45.0664 16.3164 44.6758 15.8281 44.6758 14.8516C44.6758 14.5781 44.7148 14.3047 44.793 14.0312L46.5156 8.41797C46.5469 8.32422 46.5664 8.24219 46.5742 8.17188C46.5742 8.01562 46.4961 7.9375 46.3398 7.9375C46.1914 7.9375 45.8125 8.25781 45.2031 8.89844C45.1094 8.99219 44.9648 8.93359 44.7695 8.72266C44.6289 8.58203 44.5586 8.48047 44.5586 8.41797C44.5586 8.40234 44.5664 8.37109 44.582 8.32422C45.0742 7.71484 45.6289 7.17969 46.2461 6.71875C46.8633 6.25 47.3867 6.01562 47.8164 6.01562C48.6289 6.01562 49.0391 6.51172 49.0469 7.50391C49.0469 7.69922 48.9961 7.94531 48.8945 8.24219L47.1719 13.8906ZM50.7227 2.62891C50.7227 3.04297 50.5547 3.40234 50.2188 3.70703C49.8828 4.01172 49.5078 4.16406 49.0938 4.16406C47.9922 4.16406 47.4375 3.57422 47.4297 2.39453C47.4297 2.01172 47.6016 1.66406 47.9453 1.35156C48.2891 1.03906 48.6719 0.882812 49.0938 0.882812C50.1797 0.875 50.7227 1.45703 50.7227 2.62891ZM53.1602 13.2695C53.0508 13.6211 52.9961 13.8984 52.9961 14.1016C52.9961 14.3906 53.1016 14.5352 53.3125 14.5352C53.8047 14.5352 54.6914 13.7852 55.9727 12.2852C55.9883 12.2539 56.0195 12.2344 56.0664 12.2266C56.1445 12.2266 56.25 12.3008 56.3828 12.4492C56.5938 12.6445 56.6562 12.7891 56.5703 12.8828C55.7734 14 55.0117 14.8516 54.2852 15.4375C53.5664 16.0234 52.793 16.3164 51.9648 16.3164C51.5039 16.3164 51.1445 16.1562 50.8867 15.8359C50.6289 15.5156 50.5 15.1641 50.5 14.7812C50.5 14.4453 50.5391 14.1484 50.6172 13.8906L52.5625 7.64453H50.6875C50.5625 7.64453 50.5156 7.5 50.5469 7.21094C50.5781 6.90625 50.6992 6.73828 50.9102 6.70703L52.9727 6.28516L54.6016 3.97656C54.6328 3.92969 54.7461 3.90625 54.9414 3.90625C55.5664 3.90625 55.8789 4.05078 55.8789 4.33984C55.8789 4.38672 55.8711 4.44141 55.8555 4.50391L55.2461 6.40234H58.0586C58.1211 6.40234 58.1523 6.46484 58.1523 6.58984C58.1523 6.70703 58.1211 6.91406 58.0586 7.21094C57.9961 7.5 57.9102 7.64453 57.8008 7.64453H54.8945L53.1602 13.2695ZM66.5312 7.33984C66.5312 7.72266 66.4336 8.02344 66.2383 8.24219C66.0508 8.45312 65.7969 8.55859 65.4766 8.55859C65.125 8.55859 64.8242 8.44922 64.5742 8.23047C64.3242 8.00391 64.1055 7.89062 63.918 7.89062C63.4727 7.89062 62.8867 8.65625 62.1602 10.1875C61.4414 11.7109 60.7695 13.6641 60.1445 16.0469C60.0977 16.2266 59.7031 16.3164 58.9609 16.3164C58.2188 16.3164 57.8477 16.1797 57.8477 15.9062V15.8359L59.2773 8.99219C59.3711 8.51562 59.4219 8.23438 59.4297 8.14844C59.4297 8.00781 59.3398 7.9375 59.1602 7.9375C58.9883 7.9375 58.6367 8.29688 58.1055 9.01562C58.0898 9.04688 58.0508 9.0625 57.9883 9.0625C57.9102 9.0625 57.7969 9.01562 57.6484 8.92188C57.4688 8.79688 57.3828 8.68359 57.3906 8.58203C57.3906 8.56641 57.3984 8.54297 57.4141 8.51172C58.1172 7.58203 58.7383 6.93359 59.2773 6.56641C59.8242 6.19922 60.3203 6.01562 60.7656 6.01562C61.4219 6.01562 61.75 6.39062 61.75 7.14062C61.75 7.42969 61.7188 7.71094 61.6562 7.98438L61.3516 9.35547L61.4922 9.40234C62.6094 7.14453 63.7539 6.01562 64.9258 6.01562C65.3555 6.01562 65.7305 6.14062 66.0508 6.39062C66.3711 6.64062 66.5312 6.95703 66.5312 7.33984ZM69.4609 13.8906C69.4297 14 69.4141 14.0859 69.4141 14.1484C69.4141 14.2734 69.5117 14.3398 69.707 14.3477C69.9102 14.3477 70.2578 14.0352 70.75 13.4102C70.8281 13.3008 70.9727 13.3398 71.1836 13.5273C71.3398 13.668 71.4297 13.7812 71.4531 13.8672C71.4531 13.8984 71.4375 13.9297 71.4062 13.9609C70.9141 14.5859 70.3516 15.1367 69.7188 15.6133C69.0938 16.082 68.5664 16.3164 68.1367 16.3164C67.3555 16.3164 66.9648 15.8281 66.9648 14.8516C66.9648 14.5781 67.0039 14.3047 67.082 14.0312L68.8047 8.41797C68.8359 8.32422 68.8555 8.24219 68.8633 8.17188C68.8633 8.01562 68.7852 7.9375 68.6289 7.9375C68.4805 7.9375 68.1016 8.25781 67.4922 8.89844C67.3984 8.99219 67.2539 8.93359 67.0586 8.72266C66.918 8.58203 66.8477 8.48047 66.8477 8.41797C66.8477 8.40234 66.8555 8.37109 66.8711 8.32422C67.3633 7.71484 67.918 7.17969 68.5352 6.71875C69.1523 6.25 69.6758 6.01562 70.1055 6.01562C70.918 6.01562 71.3281 6.51172 71.3359 7.50391C71.3359 7.69922 71.2852 7.94531 71.1836 8.24219L69.4609 13.8906ZM73.0117 2.62891C73.0117 3.04297 72.8438 3.40234 72.5078 3.70703C72.1719 4.01172 71.7969 4.16406 71.3828 4.16406C70.2812 4.16406 69.7266 3.57422 69.7188 2.39453C69.7188 2.01172 69.8906 1.66406 70.2344 1.35156C70.5781 1.03906 70.9609 0.882812 71.3828 0.882812C72.4688 0.875 73.0117 1.45703 73.0117 2.62891Z" fill="#111B2D"/>
</svg>
