<svg width="325" height="176" viewBox="0 0 325 176" fill="none" xmlns="http://www.w3.org/2000/svg">
<g clip-path="url(#clip0_5413_38)">
<rect width="325" height="176" fill="#F7F4F2"/>
<path d="M336.438 153.886L334.017 144.206L330.292 136.616L329.174 134.339L323.773 127.452L320.42 124.846L315.391 119.075L311.48 115.91L293.227 104.182L289.129 101.204L286.149 98.4114L285.821 97.946L285.032 98.0391L284.1 98.4114L282.61 98.9698L281.12 99.5283L278.885 99.7145L276.837 100.087L274.788 100.459H271.994H269.573L267.71 100.273L265.848 99.9006L264.171 99.3421L262.122 98.9698L260.26 98.5975H258.584L257.094 98.2252L255.231 97.6667H252.996L250.388 98.2252L247.967 98.9698L245.546 100.273L244.614 101.018L241.076 103.624L236.792 106.044L231.763 109.022L225.989 111.815L222.264 112.001L220.215 112.187C219.222 112.435 217.198 112.969 217.049 113.118C216.9 113.267 215.248 113.924 214.441 114.235L211.089 114.607H207.177L205.501 115.165L203.638 115.91L201.217 117.213L198.61 119.447L196.747 121.867L194.884 124.659L193.208 127.638L191.718 131.361L190.414 135.643L189.856 138.807L189.669 141.6L189.111 145.881V148.86L187.248 152.024L183.895 157.423L180.915 162.263L178.308 166.544L176.632 170.826L175.328 174.363L174.396 179.575L174.769 183.112L175.7 186.091L180.17 210.45H357.09L336.438 153.886Z" fill="url(#paint0_linear_5413_38)"/>
<path d="M210.157 52.8135L210.344 53.1859L210.716 53.5582L211.089 53.9305L211.834 54.3028L213.324 54.6751H214.255L215 55.0474L216.49 56.1643L218.166 57.0951L217.608 55.4197L216.676 54.4889L215.931 53.5582L214.94 52.94L214.814 52.8135L214.255 52.4412L213.823 52.1954L213.324 52.0689L212.951 51.8828L212.206 51.6966H211.461L210.902 51.8828L210.157 52.0689V52.8135Z" fill="#111B2D"/>
<path fill-rule="evenodd" clip-rule="evenodd" d="M283.914 95.2571L282.61 93.2094L275.347 77.2L274.601 74.7799L274.247 77.0138L273.484 78.503H272.18C272.031 78.503 271.001 77.7584 270.504 77.3861L265.848 74.5938L262.122 73.2907L259.142 70.8707L255.976 67.5198L253.555 64.9137L251.28 63.6106L251.32 63.0521L251.133 62.1213L250.388 61.3767L249.085 60.0736L247.595 59.1428L246.477 58.5844L245.546 58.3982L244.801 58.5844L244.056 58.9567L243.311 59.329L242.752 59.8875L242.193 60.6321L239.586 61.0044L237.723 61.749L235.115 62.3075H232.88H231.018L229.714 61.5629L228.597 60.2598L228.224 58.7705V57.0951V55.792V55.0474L227.665 54.3028L226.734 53.5582L225.244 52.6274L223.754 51.6966L222.823 50.952L222.078 50.2074V49.2766L222.264 47.9735L222.636 46.4842L223.381 44.2504L224.126 42.0165L224.313 39.7826L224.499 38.1072V36.9903L224.313 35.6872L223.94 34.7564L223.381 34.0118L223.009 33.6395H222.264H220.215L217.685 32.9803L217.421 33.6395L216.118 35.3149L215 37.3626L214.255 39.4103L213.696 42.3888L213.324 44.4365L213.137 45.5535L210.902 50.2074L210.344 51.1381L210.157 51.8828V52.0689L210.902 51.8828L211.461 51.6966H212.206L212.951 51.8828L213.324 52.0689L213.823 52.1954L214.255 52.4412L214.814 52.8135L214.94 52.94L215.931 53.5582L216.676 54.4889L217.608 55.4197L218.166 57.0951L216.49 56.1643L215 55.0474L214.255 54.6751H213.324V55.0474V55.4197L212.951 55.9782L211.461 57.2813L210.716 58.0259L209.971 59.1428L208.854 61.3767L207.177 64.9137L206.432 67.706V69.9399L206.619 70.6845L207.177 71.243L207.736 71.4291L208.667 71.687L209.412 71.8014H210.344L210.902 71.6153L211.461 71.4291L212.02 71.6153L212.044 71.687L212.206 72.1737L212.765 72.5461L213.137 73.2907V73.663V74.4076L212.951 74.5938L212.765 74.9661L212.579 75.7107L212.765 76.6415L213.137 77.2L213.51 77.7584L214.069 78.3169L214.627 78.6892L215 78.8754L215.559 79.2477L215.931 79.8061L215.186 80.7369L214.627 81.6677L214.441 82.4123L214.627 83.3431L214.814 83.7154L215.745 84.2739L217.98 85.0185L218.911 85.577V85.9493L218.725 86.6939L218.539 87.4385V88.3693V88.5555V89.4862L218.725 90.9755L219.098 91.7201L219.843 92.6509L221.519 93.2094H223.195L226.92 92.6509L232.787 91.0686L237.909 91.3478L238.841 91.9063L240.144 93.5817L241.076 103.634L244.614 101.028L245.546 100.283L247.967 98.9802L250.388 98.2356L252.996 97.6771H255.231L257.094 98.2356L258.584 98.6079H260.26L262.122 98.9802L264.171 99.3525L265.848 99.911L267.71 100.283L269.573 100.469H271.994H274.788L276.837 100.097L278.885 99.7248L281.12 99.5387L282.61 98.9802L284.1 98.4217L285.032 98.0494L285.821 97.9563L285.492 97.4909L283.914 95.2571ZM216.676 59.7013L215.559 60.2598L214.627 58.5844L216.676 59.7013Z" fill="#FFDBE4"/>
<path d="M274.229 70.8707V67.8922V66.4029L274.974 63.7967L277.023 61.5629L278.14 60.4459L278.327 59.7013L278.885 58.5844L280.003 56.7228L280.375 55.4197L280.934 54.8612L281.12 52.8135L280.934 51.5105L281.12 50.5797V47.9735L281.307 47.2289L281.679 45.7396V43.1334L281.493 41.6442L281.307 39.5965L280.562 37.9211L280.003 36.8041L279.817 36.0595H280.934L281.307 35.8734L280.562 35.3149L279.072 34.1979L277.768 32.5225L277.209 31.5918L276.092 28.7994L275.719 27.4963L275.533 25.4486L275.347 24.5178L274.788 23.4009L274.229 22.4701L271.621 20.4224L270.504 19.4916L268.828 17.8162L266.779 16.8855V16.5131L267.524 15.9547L268.828 15.7685H271.063L269.2 15.3962H267.896L266.406 15.7685L265.661 15.5824L264.171 15.21L262.867 14.8377L261.005 14.0931L262.495 12.9762L261.936 12.6039L260.632 12.4177H259.701L259.142 12.2316H258.584L258.025 12.6039L257.652 12.79L257.094 13.1623H255.604L254.858 13.5346H252.996L251.133 13.1623L248.898 12.4177L246.291 11.4869L244.801 11.1146L242.379 10.7423L239.958 10.5562H237.909L235.488 10.7423L233.625 11.1146L231.949 11.3008L230.832 11.8886L228.41 13.1623L226.362 14.0931L224.685 15.3962L222.823 16.5131L221.891 17.4439L221.333 18.5609L220.96 18.747L220.215 18.1885L219.656 18.3747L218.911 19.1193L218.539 19.6778L217.794 19.4916L217.421 19.3055H216.863L216.118 19.6778H215.559L215.186 19.8639V21.3532L215.373 24.704L216.118 28.0548L217.049 30.2887L217.421 31.0333L217.608 32.1502L217.794 32.7087L217.685 32.9803L220.215 33.6395H222.264H223.009L223.381 34.0118L223.94 34.7564L224.313 35.6872L224.499 36.9903V38.1072L224.313 39.7826L224.126 42.0165L223.381 44.2504L222.636 46.4842L222.264 47.9735L222.078 49.2766V50.2074L222.823 50.952L223.754 51.6966L225.244 52.6274L226.734 53.5582L227.665 54.3028L228.224 55.0474V55.792V57.0951V58.7705L228.597 60.2598L229.714 61.5629L231.018 62.3075H232.88H235.115L237.723 61.749L239.586 61.0044L242.193 60.6321L242.752 59.8875L243.311 59.329L244.056 58.9567L244.801 58.5844L245.546 58.3982L246.477 58.5844L247.595 59.1428L249.085 60.0736L250.388 61.3767L251.133 62.1213L251.32 63.0521L251.28 63.6106L253.555 64.9137L255.976 67.5198L259.142 70.8707L262.122 73.2907L265.848 74.5938L270.504 77.3861C271.001 77.7584 272.031 78.503 272.18 78.503H273.484L274.247 77.0138L274.601 74.7799L274.247 71.0568L274.229 70.8707Z" fill="#111B2D"/>
<path d="M336.438 153.896L334.017 144.216L330.292 136.627M286.149 98.4217L289.129 101.214L293.227 104.193L311.48 115.92L315.391 119.085L320.42 124.856L323.773 127.462L329.174 134.35L330.292 136.627M286.149 98.4217L285.821 97.9563M286.149 98.4217L283.914 95.2571M283.914 95.2571L282.61 93.2094L275.347 77.2L274.601 74.7799M283.914 95.2571L285.492 97.4909L285.821 97.9563M274.601 74.7799L274.247 71.0568L274.229 70.8707M274.601 74.7799L274.247 77.0138L273.484 78.503M274.601 74.7799L274.229 70.8707M274.229 70.8707V67.8922V66.4029L274.974 63.7967L277.023 61.5629L278.14 60.4459L278.327 59.7013L278.885 58.5844L280.003 56.7228L280.375 55.4197L280.934 54.8612L281.12 52.8135L280.934 51.5105L281.12 50.5797V47.9735L281.307 47.2289L281.679 45.7396V43.1334L281.493 41.6442L281.307 39.5965L280.562 37.9211L280.003 36.8041L279.817 36.0595H280.934L281.307 35.8734L280.562 35.3149L279.072 34.1979L277.768 32.5225L277.209 31.5918L276.092 28.7994L275.719 27.4963L275.533 25.4486L275.347 24.5178L274.788 23.4009L274.229 22.4701L271.621 20.4224L270.504 19.4916L268.828 17.8162L266.779 16.8855V16.5131L267.524 15.9547L268.828 15.7685H271.063L269.2 15.3962H267.896L266.406 15.7685L265.661 15.5824L264.171 15.21L262.867 14.8377L261.005 14.0931L262.495 12.9762L261.936 12.6039L260.632 12.4177H259.701L259.142 12.2316H258.584L258.025 12.6039L257.652 12.79L257.094 13.1623H255.604L254.858 13.5346H252.996L251.133 13.1623L248.898 12.4177L246.291 11.4869L244.801 11.1146L242.379 10.7423L239.958 10.5562H237.909L235.488 10.7423L233.625 11.1146L231.949 11.3008L230.832 11.8886L228.41 13.1623L226.362 14.0931L224.685 15.3962L222.823 16.5131L221.891 17.4439L221.333 18.5609L220.96 18.747L220.215 18.1885L219.656 18.3747L218.911 19.1193L218.539 19.6778L217.794 19.4916L217.421 19.3055H216.863L216.118 19.6778H215.559L215.186 19.8639V21.3532L215.373 24.704L216.118 28.0548L217.049 30.2887L217.421 31.0333L217.608 32.1502L217.794 32.7087M217.794 32.7087L217.421 33.6395M217.794 32.7087L217.685 32.9803M217.421 33.6395L216.118 35.3149L215 37.3626L214.255 39.4103L213.696 42.3888L213.324 44.4365L213.137 45.5535L210.902 50.2074L210.344 51.1381L210.157 51.8828M217.421 33.6395L217.685 32.9803M210.157 51.8828V52.0689M210.157 51.8828V52.8135M210.157 52.8135L210.344 53.1859L210.716 53.5582L211.089 53.9305L211.834 54.3028L213.324 54.6751M210.157 52.8135V52.0689M213.324 54.6751V55.0474V55.4197L212.951 55.9782L211.461 57.2813L210.716 58.0259L209.971 59.1428L208.854 61.3767L207.177 64.9137L206.432 67.706V69.9399L206.619 70.6845L207.177 71.243L207.736 71.4291L208.667 71.687L209.412 71.8014H210.344L210.902 71.6153L211.461 71.4291L212.02 71.6153M213.324 54.6751H214.255L215 55.0474L216.49 56.1643L218.166 57.0951L217.608 55.4197L216.676 54.4889L215.931 53.5582L214.94 52.94L214.814 52.8135L214.255 52.4412L213.823 52.1954L213.324 52.0689L212.951 51.8828L212.206 51.6966H211.461L210.902 51.8828L210.157 52.0689M212.02 71.6153L212.044 71.687L212.206 72.1737M212.02 71.6153L212.951 71.8014L213.882 71.9876H214.627L215.373 71.6153L215.931 71.0568L216.118 70.6845V69.7537V69.0091M212.02 71.6153L212.206 72.1737M212.206 72.1737L212.765 72.5461L213.137 73.2907V73.663V74.4076L212.951 74.5938L212.765 74.9661L212.579 75.7107L212.765 76.6415L213.137 77.2L213.51 77.7584L214.069 78.3169L214.627 78.6892L215 78.8754L215.559 79.2477L215.931 79.8061L215.186 80.7369L214.627 81.6677L214.441 82.4123L214.627 83.3431L214.814 83.7154L215.745 84.2739L217.98 85.0185L218.911 85.577V85.9493L218.725 86.6939L218.539 87.4385M218.539 87.4385V88.5555M218.539 87.4385V88.3693V88.5555M218.539 88.5555V89.4862L218.725 90.9755L219.098 91.7201L219.843 92.6509L221.519 93.2094H223.195L226.92 92.6509L232.787 91.0686M240.331 88.3693L239.772 88.9278L238.654 89.4862L232.787 91.0686M240.331 88.3693L245.173 82.5985M240.331 88.3693L244.801 82.9708M232.787 91.0686L237.909 91.3478L238.841 91.9063L240.144 93.5817L241.076 103.634M241.076 103.634L244.614 101.028L245.546 100.283M241.076 103.634L236.792 106.054L231.763 109.033L225.989 111.825M245.546 100.283L246.663 98.2356L250.388 94.5124L253.368 91.534M245.546 100.283L247.967 98.9802L250.388 98.2356L252.996 97.6771H255.231L257.094 98.2356L258.584 98.6079H260.26L262.122 98.9802L264.171 99.3525L265.848 99.911L267.71 100.283L269.573 100.469H271.994H274.788L276.837 100.097L278.885 99.7248L281.12 99.5387L282.61 98.9802L284.1 98.4217L285.032 98.0494L285.821 97.9563M225.989 111.825L222.264 113.687L219.098 116.479M225.989 111.825L222.264 112.011L220.215 112.197C219.222 112.445 217.198 112.979 217.049 113.128C216.9 113.277 215.248 113.935 214.441 114.245L211.089 114.617H207.177L205.501 115.176L203.638 115.92L201.217 117.223L198.61 119.457L196.747 121.877L194.884 124.67L193.208 127.648L191.718 131.371L190.414 135.653L189.856 138.818L189.669 141.61M189.669 141.61V144.775L189.856 147.939V152.035V154.827M189.669 141.61L189.111 145.891V148.87L187.248 152.035L183.895 157.433L180.915 162.273L178.308 166.555L176.632 170.836L175.328 174.373L174.396 179.586L174.769 183.123L175.7 186.101M189.856 154.827L189.669 158.178M189.856 154.827L188.366 157.433L186.689 159.667L184.827 162.273L183.523 164.507L182.405 167.672L180.17 169.719L177.935 172.139L177.004 173.443M330.292 136.627L326.567 134.164L321.91 129.882L318.185 126.159M215.745 61.5629L216.676 61.0044L218.539 59.5151L214.627 57.2813L213.882 57.0951L213.137 57.2813L214.627 58.5844M214.627 58.5844L216.676 59.7013L215.559 60.2598L214.627 58.5844ZM218.911 61.5629L217.049 63.0521L216.676 63.6106L216.49 64.3552L216.304 65.6583V66.0306M217.685 32.9803L220.215 33.6395H222.264H223.009L223.381 34.0118L223.94 34.7564L224.313 35.6872L224.499 36.9903V38.1072L224.313 39.7826L224.126 42.0165L223.381 44.2504L222.636 46.4842L222.264 47.9735L222.078 49.2766V50.2074L222.823 50.952L223.754 51.6966L225.244 52.6274L226.734 53.5582L227.665 54.3028L228.224 55.0474V55.792V57.0951V58.7705L228.597 60.2598L229.714 61.5629L231.018 62.3075H232.88H235.115L237.723 61.749L239.586 61.0044L242.193 60.6321M240.889 72.7322L242.193 73.663L244.428 74.7799L245.732 74.9661L247.036 74.5938L247.781 74.0353L249.457 72.7322L250.575 71.6153L250.947 70.4983L251.133 68.0783V65.6583L251.28 63.6106M243.869 65.6583L242.752 66.0306L242.007 66.9614V68.4506L242.566 69.9399L243.869 70.6845L244.614 70.3122L244.801 69.3814L245.36 68.4506L246.291 68.6368L247.036 69.0091L247.408 68.4506V67.5198L247.036 66.4029V65.6583L246.477 64.5997L245.546 63.9829L244.801 62.6798L244.056 62.023M273.484 78.503C273.111 78.503 272.329 78.503 272.18 78.503M273.484 78.503H272.18M272.18 78.503C272.031 78.503 271.001 77.7584 270.504 77.3861L265.848 74.5938L262.122 73.2907L259.142 70.8707L255.976 67.5198L253.555 64.9137L251.28 63.6106M251.28 63.6106L251.32 63.0521L251.133 62.1213L250.388 61.3767L249.085 60.0736L247.595 59.1428L246.477 58.5844L245.546 58.3982L244.801 58.5844L244.056 58.9567L243.311 59.329L242.752 59.8875L242.193 60.6321M242.193 60.6321L242.007 61.1906" stroke="#111B2D" stroke-width="0.659756"/>
<path d="M32.7995 66.9301C32.7995 68.3707 33.9077 69.0911 36.1241 69.0911C36.2842 69.0911 36.3642 69.325 36.3642 69.7929C36.3642 70.2608 36.2842 70.4948 36.1241 70.4948C34.154 70.4086 32.5533 70.3655 31.322 70.3655C30.0907 70.3655 28.5023 70.4086 26.5568 70.4948C26.3967 70.4948 26.3167 70.267 26.3167 69.8114C26.3167 69.3435 26.3967 69.1034 26.5568 69.0911C28.7485 69.0911 29.8444 68.3707 29.8444 66.9301V58.8958C29.8444 58.4279 29.6043 58.1939 29.1241 58.1939H16.1583C15.6781 58.1939 15.438 58.4279 15.438 58.8958V66.9301C15.438 68.3707 16.5462 69.0911 18.7625 69.0911C18.9226 69.0911 19.0027 69.325 19.0027 69.7929C19.0027 70.2608 18.9226 70.4948 18.7625 70.4948C16.9279 70.4086 15.3703 70.3655 14.0897 70.3655C12.8091 70.3655 11.1776 70.4086 9.19522 70.4948C9.03515 70.4948 8.95512 70.267 8.95512 69.8114C8.95512 69.3435 9.03515 69.1034 9.19522 69.0911C11.387 69.0911 12.4828 68.3707 12.4828 66.9301V48.719C12.4828 47.3029 11.3192 46.5949 8.99206 46.5949C8.81967 46.5949 8.73348 46.361 8.73348 45.8931C8.73348 45.4252 8.81967 45.1912 8.99206 45.1912C9.53384 45.2528 11.1592 45.2836 13.8681 45.2836C16.577 45.2836 18.2085 45.2528 18.7625 45.1912C18.9226 45.1912 19.0027 45.4252 19.0027 45.8931C19.0027 46.361 18.9226 46.5949 18.7625 46.5949C16.5462 46.5949 15.438 47.3029 15.438 48.719V55.9221C15.438 56.4024 15.6781 56.6425 16.1583 56.6425H29.1241C29.6043 56.6425 29.8444 56.4024 29.8444 55.9221V48.719C29.8444 47.3029 28.6808 46.5949 26.3536 46.5949C26.1812 46.5949 26.095 46.361 26.095 45.8931C26.095 45.4252 26.1812 45.1912 26.3536 45.1912C26.8954 45.2528 28.5207 45.2836 31.2296 45.2836C33.9385 45.2836 35.57 45.2528 36.1241 45.1912C36.2842 45.1912 36.3642 45.4252 36.3642 45.8931C36.3642 46.361 36.2842 46.5949 36.1241 46.5949C33.9077 46.5949 32.7995 47.3029 32.7995 48.719V66.9301ZM41.6473 66.9301V48.719C41.6473 47.3029 40.4837 46.5949 38.1565 46.5949C37.9841 46.5949 37.8979 46.361 37.8979 45.8931C37.8979 45.4252 37.9841 45.1912 38.1565 45.1912C38.6983 45.2528 40.3236 45.2836 43.0325 45.2836C45.7414 45.2836 47.3729 45.2528 47.927 45.1912C48.0871 45.1912 48.1671 45.4252 48.1671 45.8931C48.1671 46.361 48.0871 46.5949 47.927 46.5949C45.7106 46.5949 44.6024 47.3029 44.6024 48.719V66.9301C44.6024 68.3707 45.7106 69.0911 47.927 69.0911C48.0871 69.0911 48.1671 69.325 48.1671 69.7929C48.1671 70.2608 48.0871 70.4948 47.927 70.4948C46.8681 70.4086 45.2735 70.3655 43.1433 70.3655C41.0132 70.3655 39.4186 70.4086 38.3597 70.4948C38.1996 70.4948 38.1196 70.2608 38.1196 69.7929C38.1196 69.325 38.1996 69.0911 38.3597 69.0911C40.5514 69.0911 41.6473 68.3707 41.6473 66.9301Z" fill="#111B2D"/>
<path d="M11.9084 96.839L12.9981 79.4036C13.0104 79.2682 13.0165 79.1081 13.0165 78.9234C13.0165 78.7387 12.955 78.4493 12.8319 78.0553C12.721 77.6613 12.4009 77.3042 11.8714 76.9841C11.3543 76.6639 10.5601 76.5039 9.48883 76.5039C9.32876 76.5039 9.24872 76.2699 9.24872 75.802C9.24872 75.3341 9.32876 75.1002 9.48883 75.1002C10.0429 75.1617 10.9603 75.1925 12.2408 75.1925C13.5337 75.1925 14.371 75.291 14.7527 75.488C15.1467 75.6727 15.4669 76.0237 15.7131 76.5408L24.4308 95.1583C24.5909 95.4908 24.7264 95.657 24.8372 95.657C24.948 95.657 25.0896 95.4784 25.262 95.1214L34.2198 76.43C34.4907 75.8636 34.8355 75.5188 35.2541 75.3957C35.6728 75.2602 36.4854 75.1925 37.6921 75.1925C38.8988 75.1925 39.7977 75.1617 40.3887 75.1002C40.5611 75.1002 40.6473 75.3341 40.6473 75.802C40.6473 76.2699 40.5611 76.5039 40.3887 76.5039C39.3421 76.5039 38.5725 76.6701 38.08 77.0025C37.5998 77.335 37.2858 77.729 37.138 78.1846C36.9903 78.6279 36.9164 79.182 36.9164 79.8469L37.0457 96.839C37.058 98.2797 38.0369 99 39.9824 99C40.1547 99 40.2409 99.234 40.2409 99.7019C40.2409 100.17 40.1547 100.404 39.9824 100.404C39.0589 100.318 37.649 100.274 35.7528 100.274C33.8566 100.274 32.3851 100.318 31.3385 100.404C31.1661 100.404 31.0799 100.17 31.0799 99.7019C31.0799 99.234 31.1661 99 31.3385 99C33.1732 99 34.0905 98.2797 34.0905 96.839L34.0166 81.0844C34.0166 80.9243 33.9612 80.8443 33.8504 80.8443C33.7396 80.8443 33.6534 80.9181 33.5918 81.0659L24.2461 100.385C24.1476 100.595 24.0122 100.699 23.8398 100.699C23.6674 100.699 23.532 100.595 23.4335 100.385L14.8635 81.0474C14.765 80.8381 14.6604 80.7334 14.5495 80.7334C14.4387 80.7334 14.3772 80.8381 14.3648 81.0474L13.4229 96.839V97.1715C13.4229 97.3193 13.4783 97.5532 13.5891 97.8733C13.7122 98.1935 14.0139 98.4644 14.4941 98.686C14.9743 98.8953 15.59 99 16.3411 99C16.5135 99 16.5997 99.234 16.5997 99.7019C16.5997 100.17 16.5135 100.404 16.3411 100.404C15.3437 100.318 14.1309 100.274 12.7026 100.274C11.2742 100.274 10.0429 100.318 9.00862 100.404C8.84855 100.404 8.76851 100.17 8.76851 99.7019C8.76851 99.234 8.84855 99 9.00862 99C10.8556 99 11.8222 98.2797 11.9084 96.839ZM44.305 78.6279C43.4431 77.2119 42.2857 76.5039 40.8327 76.5039C40.6726 76.5039 40.5926 76.2699 40.5926 75.802C40.5926 75.3341 40.6726 75.1002 40.8327 75.1002C41.3868 75.1617 42.8459 75.1925 45.21 75.1925C47.5742 75.1925 49.0456 75.1617 49.6243 75.1002C49.7844 75.1002 49.8644 75.3341 49.8644 75.802C49.8644 76.2699 49.7844 76.5039 49.6243 76.5039C48.1344 76.5039 47.3895 76.8548 47.3895 77.5566C47.3895 77.8398 47.5188 78.1969 47.7773 78.6279L52.9673 87.3456C53.0658 87.518 53.1582 87.6042 53.2444 87.6042C53.3429 87.6042 53.4475 87.518 53.5584 87.3456L59.0623 78.7941C59.3948 78.277 59.561 77.8398 59.561 77.4828C59.561 76.8302 58.8776 76.5039 57.5109 76.5039C57.3385 76.5039 57.2523 76.2699 57.2523 75.802C57.2523 75.3341 57.3385 75.1002 57.5109 75.1002C58.0773 75.1617 59.2963 75.1925 61.1679 75.1925C63.0395 75.1925 64.2523 75.1617 64.8064 75.1002C64.9665 75.1002 65.0465 75.3341 65.0465 75.802C65.0465 76.2699 64.9665 76.5039 64.8064 76.5039C63.0949 76.5039 61.7959 77.1749 60.9093 78.5171L55.2206 87.2533C54.4203 88.4846 53.9832 89.2849 53.9093 89.6543C53.8354 90.0114 53.7985 90.5409 53.7985 91.2427V96.839C53.7985 98.2797 54.8081 99 56.8275 99C56.9876 99 57.0676 99.234 57.0676 99.7019C57.0676 100.17 56.9876 100.404 56.8275 100.404C55.904 100.318 54.4018 100.274 52.3209 100.274C50.24 100.274 48.7378 100.318 47.8143 100.404C47.6542 100.404 47.5742 100.17 47.5742 99.7019C47.5742 99.234 47.6542 99 47.8143 99C49.8336 99 50.8433 98.2797 50.8433 96.839V91.2797C50.8433 90.036 50.6709 89.131 50.3262 88.5646L44.305 78.6279Z" fill="#111B2D"/>
<path d="M12.444 126.968V109.902C12.444 108.658 12.1608 107.802 11.5944 107.335C11.0403 106.867 10.1661 106.633 8.97168 106.633C8.81161 106.633 8.73157 106.399 8.73157 105.931C8.73157 105.463 8.81161 105.229 8.97168 105.229C9.51346 105.291 10.4308 105.321 11.7237 105.321C13.0165 105.321 13.86 105.371 14.254 105.469C14.648 105.555 15.0113 105.808 15.3437 106.226L29.3438 124.271C29.4669 124.431 29.6147 124.511 29.7871 124.511C30.0703 124.511 30.2119 124.308 30.2119 123.902V108.775C30.2119 107.347 29.1591 106.633 27.0535 106.633C26.8812 106.633 26.795 106.399 26.795 105.931C26.795 105.463 26.8812 105.229 27.0535 105.229C27.62 105.291 28.7774 105.321 30.5259 105.321C32.2743 105.321 33.4256 105.291 33.9797 105.229C34.1398 105.229 34.2198 105.463 34.2198 105.931C34.2198 106.399 34.1398 106.633 33.9797 106.633C32.3051 106.633 31.4678 107.347 31.4678 108.775V130.329C31.4678 130.637 31.3632 130.791 31.1538 130.791C30.9322 130.791 30.6736 130.606 30.3781 130.237L14.3648 110.013C14.2294 109.853 14.094 109.773 13.9585 109.773C13.8231 109.773 13.7553 109.883 13.7553 110.105V126.968C13.7553 128.408 14.7342 129.129 16.692 129.129C16.8521 129.129 16.9321 129.363 16.9321 129.831C16.9321 130.299 16.8521 130.532 16.692 130.532C15.6947 130.446 14.4818 130.403 13.0535 130.403C11.6252 130.403 10.3938 130.446 9.35954 130.532C9.18716 130.532 9.10097 130.299 9.10097 129.831C9.10097 129.363 9.18716 129.129 9.35954 129.129C11.4158 129.129 12.444 128.408 12.444 126.968ZM34.4976 130.532C34.3252 130.532 34.239 130.299 34.239 129.831C34.239 129.363 34.3252 129.129 34.4976 129.129C35.692 129.129 36.4862 128.956 36.8802 128.612C37.2742 128.267 37.6805 127.627 38.0992 126.691L45.0623 108.461C45.1362 108.252 45.1731 108.067 45.1731 107.907C45.1731 107.747 45.0931 107.587 44.933 107.427C44.7729 107.254 44.6929 107.131 44.6929 107.057C44.6929 106.984 44.933 106.817 45.4132 106.559C45.9057 106.288 46.4783 105.925 47.1309 105.469C47.7835 105.013 48.1837 104.786 48.3314 104.786C48.6146 104.786 48.8301 105.057 48.9779 105.598C49.298 106.793 49.5997 107.815 49.8829 108.664L56.0333 126.968C56.5135 128.408 57.6956 129.129 59.5795 129.129C59.7396 129.129 59.8196 129.363 59.8196 129.831C59.8196 130.299 59.7396 130.532 59.5795 130.532C58.6806 130.446 57.2585 130.403 55.313 130.403C53.3675 130.403 51.9515 130.446 51.0649 130.532C50.8926 130.532 50.8064 130.299 50.8064 129.831C50.8064 129.363 50.8926 129.129 51.0649 129.129C52.2839 129.129 52.8934 128.71 52.8934 127.873C52.8934 127.59 52.8442 127.288 52.7457 126.968L50.8802 121.187C50.7694 120.793 50.4985 120.596 50.0676 120.596H42.5504C42.2056 120.596 41.9594 120.811 41.8116 121.242L39.7245 127.042C39.6137 127.313 39.5583 127.559 39.5583 127.78C39.5583 128.679 40.4879 129.129 42.3472 129.129C42.5196 129.129 42.6058 129.363 42.6058 129.831C42.6058 130.299 42.5196 130.532 42.3472 130.532C41.3006 130.446 39.9893 130.403 38.4132 130.403C36.8371 130.403 35.5319 130.446 34.4976 130.532ZM49.6797 119.321C49.9875 119.321 50.1415 119.223 50.1415 119.026C50.1415 118.964 50.1291 118.897 50.1045 118.823L46.9647 108.997C46.8908 108.751 46.78 108.627 46.6322 108.627C46.4844 108.627 46.3675 108.751 46.2813 108.997L42.6427 118.823C42.6181 118.884 42.6058 118.952 42.6058 119.026C42.6058 119.223 42.7536 119.321 43.0491 119.321H49.6797ZM63.5882 126.968L64.6779 109.532C64.6902 109.397 64.6963 109.237 64.6963 109.052C64.6963 108.867 64.6348 108.578 64.5116 108.184C64.4008 107.79 64.0807 107.433 63.5512 107.113C63.0341 106.793 62.2399 106.633 61.1686 106.633C61.0086 106.633 60.9285 106.399 60.9285 105.931C60.9285 105.463 61.0086 105.229 61.1686 105.229C61.7227 105.291 62.64 105.321 63.9206 105.321C65.2135 105.321 66.0508 105.42 66.4325 105.617C66.8265 105.802 67.1467 106.152 67.3929 106.67L76.1106 125.287C76.2707 125.62 76.4062 125.786 76.517 125.786C76.6278 125.786 76.7694 125.607 76.9418 125.25L85.8996 106.559C86.1705 105.992 86.5153 105.648 86.9339 105.524C87.3526 105.389 88.1652 105.321 89.3719 105.321C90.5786 105.321 91.4775 105.291 92.0685 105.229C92.2409 105.229 92.3271 105.463 92.3271 105.931C92.3271 106.399 92.2409 106.633 92.0685 106.633C91.0219 106.633 90.2523 106.799 89.7598 107.131C89.2796 107.464 88.9656 107.858 88.8178 108.313C88.6701 108.757 88.5962 109.311 88.5962 109.976L88.7255 126.968C88.7378 128.408 89.7167 129.129 91.6622 129.129C91.8345 129.129 91.9207 129.363 91.9207 129.831C91.9207 130.299 91.8345 130.532 91.6622 130.532C90.7387 130.446 89.3288 130.403 87.4326 130.403C85.5364 130.403 84.0649 130.446 83.0183 130.532C82.8459 130.532 82.7597 130.299 82.7597 129.831C82.7597 129.363 82.8459 129.129 83.0183 129.129C84.853 129.129 85.7703 128.408 85.7703 126.968L85.6964 111.213C85.6964 111.053 85.641 110.973 85.5302 110.973C85.4194 110.973 85.3332 111.047 85.2716 111.195L75.9259 130.514C75.8274 130.723 75.692 130.828 75.5196 130.828C75.3472 130.828 75.2118 130.723 75.1133 130.514L66.5433 111.176C66.4448 110.967 66.3401 110.862 66.2293 110.862C66.1185 110.862 66.0569 110.967 66.0446 111.176L65.1027 126.968V127.3C65.1027 127.448 65.1581 127.682 65.2689 128.002C65.392 128.322 65.6937 128.593 66.1739 128.815C66.6541 129.024 67.2698 129.129 68.0209 129.129C68.1933 129.129 68.2795 129.363 68.2795 129.831C68.2795 130.299 68.1933 130.532 68.0209 130.532C67.0235 130.446 65.8107 130.403 64.3824 130.403C62.954 130.403 61.7227 130.446 60.6884 130.532C60.5283 130.532 60.4483 130.299 60.4483 129.831C60.4483 129.363 60.5283 129.129 60.6884 129.129C62.5354 129.129 63.502 128.408 63.5882 126.968ZM97.7579 127.134V108.757C97.7579 107.402 96.6066 106.725 94.3041 106.725C94.1317 106.725 94.0455 106.491 94.0455 106.023C94.0455 105.555 94.1317 105.321 94.3041 105.321C96.0279 105.395 97.6902 105.432 99.2909 105.432C100.892 105.432 103.046 105.414 105.755 105.377C108.477 105.34 110.404 105.321 111.536 105.321C112.164 105.321 112.54 105.364 112.663 105.451C112.798 105.537 112.866 105.66 112.866 105.82V111.749C112.866 111.958 112.632 112.063 112.164 112.063C111.709 112.063 111.481 111.958 111.481 111.749C111.481 108.473 109.893 106.799 106.716 106.725L101.47 106.596C100.965 106.596 100.713 106.891 100.713 107.482V117.308C100.713 117.714 100.885 117.918 101.23 117.918H105.035C105.995 117.918 106.593 117.739 106.827 117.382C107.073 117.025 107.196 116.483 107.196 115.757V114.39C107.196 114.23 107.411 114.15 107.842 114.15C108.273 114.15 108.489 114.23 108.489 114.39C108.39 115.264 108.341 116.582 108.341 118.342C108.341 120.103 108.39 121.476 108.489 122.461C108.489 122.621 108.273 122.701 107.842 122.701C107.411 122.701 107.196 122.621 107.196 122.461V120.947C107.196 120.417 107.073 119.992 106.827 119.672C106.593 119.352 105.995 119.192 105.035 119.192H101.175C100.867 119.192 100.713 119.383 100.713 119.765V125.564C100.713 126.956 101.113 127.99 101.914 128.667C102.381 129.061 102.942 129.258 103.594 129.258L107.935 129.129C111.124 129.03 112.718 127.362 112.718 124.123C112.718 123.914 112.946 123.81 113.402 123.81C113.87 123.81 114.104 123.914 114.104 124.123V129.978C114.104 130.274 113.968 130.44 113.697 130.477C113.426 130.514 113.112 130.532 112.755 130.532C111.327 130.532 109.135 130.508 106.18 130.459C103.237 130.422 100.972 130.403 99.3832 130.403C97.7948 130.403 96.1018 130.446 94.3041 130.532C94.1317 130.532 94.0455 130.305 94.0455 129.849C94.0455 129.381 94.1317 129.141 94.3041 129.129C96.6066 129.129 97.7579 128.464 97.7579 127.134ZM120.957 106.3C120.957 108.64 119.812 110.665 117.521 112.377C117.176 112.635 116.807 112.882 116.413 113.116L116.247 113.134C116.062 113.072 115.914 112.931 115.804 112.709L115.767 112.543L115.804 112.506C117.577 111.213 118.512 109.766 118.611 108.166C118.611 108.092 118.611 108.012 118.611 107.926C118.611 107.445 118.408 107.101 118.001 106.891L117.3 106.559C116.524 106.14 116.13 105.512 116.118 104.675C116.118 103.788 116.567 103.265 117.466 103.105C117.638 103.068 117.817 103.05 118.001 103.05C118.937 103.05 119.707 103.456 120.31 104.269C120.741 104.872 120.957 105.549 120.957 106.3ZM123.802 111.01C123.802 109.237 124.479 107.765 125.833 106.596C127.2 105.414 128.912 104.823 130.968 104.823C132.249 104.823 133.418 104.952 134.477 105.21C135.548 105.457 136.164 105.58 136.324 105.58C136.484 105.58 136.583 105.574 136.62 105.561C136.964 106.805 137.198 108.393 137.322 110.327C137.322 110.499 137.217 110.616 137.008 110.678C136.811 110.739 136.614 110.77 136.417 110.77C136.22 110.77 136.096 110.684 136.047 110.511C135.789 109.157 135.21 108.079 134.311 107.279C133.424 106.466 132.162 106.06 130.525 106.06C129.293 106.06 128.296 106.473 127.533 107.298C126.769 108.11 126.387 109.071 126.387 110.179C126.387 113.048 128.204 114.852 131.836 115.59C136.417 116.526 138.707 119.063 138.707 123.2C138.707 125.54 138.03 127.411 136.675 128.815C135.333 130.206 133.609 130.902 131.504 130.902C130.026 130.902 128.844 130.773 127.957 130.514C127.083 130.255 125.944 129.769 124.54 129.055C123.937 127.146 123.635 125.466 123.635 124.013C123.635 123.877 123.66 123.729 123.709 123.569C123.759 123.409 123.968 123.329 124.337 123.329C124.707 123.329 124.898 123.385 124.91 123.496C125.021 125.084 125.704 126.488 126.96 127.707C128.228 128.913 129.921 129.517 132.039 129.517C133.172 129.517 134.139 129.073 134.939 128.187C135.752 127.3 136.158 126.167 136.158 124.788C136.158 121.882 134.533 120.06 131.282 119.321C126.307 118.164 123.814 115.393 123.802 111.01Z" fill="#111B2D"/>
<path d="M12.4828 156.877V138.666C12.4828 137.311 11.3192 136.634 8.99206 136.634C8.81967 136.634 8.73348 136.4 8.73348 135.932C8.73348 135.464 8.81967 135.23 8.99206 135.23C10.7159 135.304 12.1935 135.341 13.4248 135.341C14.6561 135.341 15.9428 135.323 17.285 135.286C18.6271 135.249 19.686 135.23 20.4618 135.23C24.2912 135.23 27.4926 136.259 30.066 138.315C32.6395 140.371 33.9262 143.222 33.9262 146.866C33.9262 150.831 32.7934 154.088 30.5278 156.637C28.2745 159.173 25.2146 160.442 21.3483 160.442C20.7573 160.442 19.5567 160.417 17.7467 160.368C15.949 160.331 14.4468 160.312 13.2401 160.312C12.0334 160.312 10.6728 160.355 9.15828 160.442C8.99821 160.442 8.91818 160.214 8.91818 159.758C8.91818 159.29 8.99821 159.05 9.15828 159.038C11.3747 159.038 12.4828 158.318 12.4828 156.877ZM15.438 154.808C15.438 156.643 15.8074 157.856 16.5462 158.447C17.285 159.038 18.4609 159.333 20.0739 159.333C23.2261 159.333 25.7318 158.219 27.5911 155.99C29.4627 153.762 30.3985 150.794 30.3985 147.088C30.3985 143.985 29.3088 141.424 27.1293 139.405C24.9499 137.373 22.2225 136.357 18.9472 136.357C17.7775 136.357 17.0018 136.412 16.6201 136.523C16.2507 136.622 15.9613 136.843 15.752 137.188C15.5427 137.521 15.438 137.958 15.438 138.499V154.808ZM39.9111 156.877V138.666C39.9111 137.25 38.7475 136.542 36.4204 136.542C36.248 136.542 36.1618 136.308 36.1618 135.84C36.1618 135.372 36.248 135.138 36.4204 135.138C36.9621 135.2 38.5875 135.23 41.2964 135.23C44.0053 135.23 45.6367 135.2 46.1908 135.138C46.3509 135.138 46.4309 135.372 46.4309 135.84C46.4309 136.308 46.3509 136.542 46.1908 136.542C43.9745 136.542 42.8663 137.25 42.8663 138.666V156.877C42.8663 158.318 43.9745 159.038 46.1908 159.038C46.3509 159.038 46.4309 159.272 46.4309 159.74C46.4309 160.208 46.3509 160.442 46.1908 160.442C45.1319 160.355 43.5374 160.312 41.4072 160.312C39.277 160.312 37.6824 160.355 36.6235 160.442C36.4634 160.442 36.3834 160.208 36.3834 159.74C36.3834 159.272 36.4634 159.038 36.6235 159.038C38.8153 159.038 39.9111 158.318 39.9111 156.877ZM50.9937 156.877L52.0834 139.441C52.0957 139.306 52.1019 139.146 52.1019 138.961C52.1019 138.777 52.0403 138.487 51.9172 138.093C51.8064 137.699 51.4862 137.342 50.9568 137.022C50.4396 136.702 49.6454 136.542 48.5742 136.542C48.4141 136.542 48.3341 136.308 48.3341 135.84C48.3341 135.372 48.4141 135.138 48.5742 135.138C49.1283 135.2 50.0456 135.23 51.3262 135.23C52.619 135.23 53.4563 135.329 53.8381 135.526C54.2321 135.711 54.5522 136.061 54.7985 136.579L63.5162 155.196C63.6763 155.529 63.8117 155.695 63.9225 155.695C64.0333 155.695 64.1749 155.516 64.3473 155.159L73.3052 136.468C73.576 135.901 73.9208 135.557 74.3395 135.434C74.7581 135.298 75.5708 135.23 76.7775 135.23C77.9841 135.23 78.883 135.2 79.474 135.138C79.6464 135.138 79.7326 135.372 79.7326 135.84C79.7326 136.308 79.6464 136.542 79.474 136.542C78.4274 136.542 77.6579 136.708 77.1653 137.04C76.6851 137.373 76.3711 137.767 76.2234 138.222C76.0756 138.666 76.0017 139.22 76.0017 139.885L76.131 156.877C76.1433 158.318 77.1222 159.038 79.0677 159.038C79.2401 159.038 79.3263 159.272 79.3263 159.74C79.3263 160.208 79.2401 160.442 79.0677 160.442C78.1442 160.355 76.7344 160.312 74.8381 160.312C72.9419 160.312 71.4705 160.355 70.4239 160.442C70.2515 160.442 70.1653 160.208 70.1653 159.74C70.1653 159.272 70.2515 159.038 70.4239 159.038C72.2585 159.038 73.1759 158.318 73.1759 156.877L73.102 141.122C73.102 140.962 73.0466 140.882 72.9358 140.882C72.8249 140.882 72.7387 140.956 72.6772 141.104L63.3315 160.423C63.233 160.632 63.0975 160.737 62.9252 160.737C62.7528 160.737 62.6173 160.632 62.5188 160.423L53.9489 141.085C53.8504 140.876 53.7457 140.771 53.6349 140.771C53.5241 140.771 53.4625 140.876 53.4502 141.085L52.5082 156.877V157.209C52.5082 157.357 52.5636 157.591 52.6745 157.911C52.7976 158.231 53.0993 158.502 53.5795 158.724C54.0597 158.933 54.6753 159.038 55.4264 159.038C55.5988 159.038 55.685 159.272 55.685 159.74C55.685 160.208 55.5988 160.442 55.4264 160.442C54.4291 160.355 53.2162 160.312 51.7879 160.312C50.3596 160.312 49.1283 160.355 48.094 160.442C47.9339 160.442 47.8539 160.208 47.8539 159.74C47.8539 159.272 47.9339 159.038 48.094 159.038C49.9409 159.038 50.9075 158.318 50.9937 156.877ZM85.1635 156.877V138.666C85.1635 137.25 83.9999 136.542 81.6727 136.542C81.5003 136.542 81.4141 136.308 81.4141 135.84C81.4141 135.372 81.5003 135.138 81.6727 135.138C82.2145 135.2 83.8398 135.23 86.5487 135.23C89.2576 135.23 90.8891 135.2 91.4432 135.138C91.6032 135.138 91.6833 135.372 91.6833 135.84C91.6833 136.308 91.6032 136.542 91.4432 136.542C89.2268 136.542 88.1186 137.25 88.1186 138.666V156.877C88.1186 158.318 89.2268 159.038 91.4432 159.038C91.6032 159.038 91.6833 159.272 91.6833 159.74C91.6833 160.208 91.6032 160.442 91.4432 160.442C90.3842 160.355 88.7897 160.312 86.6595 160.312C84.5293 160.312 82.9348 160.355 81.8758 160.442C81.7158 160.442 81.6357 160.208 81.6357 159.74C81.6357 159.272 81.7158 159.038 81.8758 159.038C84.0676 159.038 85.1635 158.318 85.1635 156.877ZM102.674 156.877V137.484C102.674 136.917 102.378 136.634 101.787 136.634H98.9796C95.7166 136.634 94.0851 138.333 94.0851 141.732C94.0851 141.904 93.8511 141.99 93.3832 141.99C92.9153 141.99 92.6814 141.904 92.6814 141.732V135.84C92.6814 135.434 93.1616 135.23 94.122 135.23C95.3656 135.23 96.991 135.249 98.998 135.286C101.005 135.31 102.723 135.323 104.151 135.323C105.579 135.323 107.291 135.31 109.286 135.286C111.28 135.249 112.973 135.23 114.365 135.23C115.325 135.23 115.805 135.434 115.805 135.84V141.732C115.805 141.904 115.572 141.99 115.104 141.99C114.636 141.99 114.402 141.904 114.402 141.732C114.402 138.333 112.789 136.634 109.563 136.634H106.571C105.943 136.634 105.629 136.917 105.629 137.484V156.877C105.629 158.318 106.792 159.038 109.119 159.038C109.292 159.038 109.378 159.272 109.378 159.74C109.378 160.208 109.292 160.442 109.119 160.442C107.987 160.355 106.306 160.312 104.077 160.312C101.849 160.312 100.168 160.355 99.035 160.442C98.8626 160.442 98.7764 160.208 98.7764 159.74C98.7764 159.272 98.8626 159.038 99.035 159.038C101.461 159.038 102.674 158.318 102.674 156.877ZM120.701 156.877V138.666C120.701 137.311 119.537 136.634 117.21 136.634C117.038 136.634 116.951 136.4 116.951 135.932C116.951 135.464 117.038 135.23 117.21 135.23C118.638 135.292 119.943 135.323 121.126 135.323C122.308 135.323 123.496 135.31 124.69 135.286C125.885 135.249 126.851 135.23 127.59 135.23C130.422 135.23 132.644 135.828 134.257 137.022C135.871 138.204 136.677 139.909 136.677 142.138C136.677 145.549 135.033 147.691 131.746 148.566C131.586 148.615 131.505 148.756 131.505 148.99C131.505 149.224 131.998 150.117 132.983 151.668C133.98 153.208 135.409 154.987 137.268 157.006C139.127 159.026 140.642 160.035 141.812 160.035C141.984 160.035 142.07 160.14 142.07 160.349C142.07 160.571 141.984 160.688 141.812 160.7C141.294 160.749 140.882 160.774 140.574 160.774C138.469 160.774 136.856 160.362 135.735 159.537C134.615 158.699 133.593 157.708 132.669 156.563C131.758 155.405 130.773 154.026 129.714 152.426C128.655 150.813 127.953 149.889 127.608 149.655C127.264 149.421 126.746 149.304 126.057 149.304C125.38 149.304 124.906 149.292 124.635 149.267C124.364 149.23 124.179 149.212 124.081 149.212C123.982 149.212 123.884 149.243 123.785 149.304C123.699 149.366 123.656 149.471 123.656 149.618V156.877C123.656 158.318 124.85 159.038 127.239 159.038C127.399 159.038 127.479 159.272 127.479 159.74C127.479 160.208 127.399 160.442 127.239 160.442C126.291 160.355 124.647 160.312 122.308 160.312C119.968 160.312 118.324 160.355 117.376 160.442C117.216 160.442 117.136 160.214 117.136 159.758C117.136 159.29 117.216 159.05 117.376 159.038C119.593 159.038 120.701 158.318 120.701 156.877ZM123.656 147.291C123.656 147.673 123.89 147.913 124.358 148.011C124.826 148.11 125.484 148.159 126.334 148.159C131.099 148.159 133.482 146.152 133.482 142.138C133.482 140.525 132.835 139.164 131.542 138.056C130.25 136.936 128.458 136.375 126.168 136.375H124.524C123.945 136.375 123.656 136.566 123.656 136.948V147.291ZM145.913 156.877V138.666C145.913 137.25 144.749 136.542 142.422 136.542C142.249 136.542 142.163 136.308 142.163 135.84C142.163 135.372 142.249 135.138 142.422 135.138C142.964 135.2 144.589 135.23 147.298 135.23C150.007 135.23 151.638 135.2 152.192 135.138C152.352 135.138 152.432 135.372 152.432 135.84C152.432 136.308 152.352 136.542 152.192 136.542C149.976 136.542 148.868 137.25 148.868 138.666V156.877C148.868 158.318 149.976 159.038 152.192 159.038C152.352 159.038 152.432 159.272 152.432 159.74C152.432 160.208 152.352 160.442 152.192 160.442C151.133 160.355 149.539 160.312 147.409 160.312C145.279 160.312 143.684 160.355 142.625 160.442C142.465 160.442 142.385 160.208 142.385 159.74C142.385 159.272 142.465 159.038 142.625 159.038C144.817 159.038 145.913 158.318 145.913 156.877Z" fill="#111B2D"/>
<path d="M277.388 9.73416V7.28069C277.388 7.09342 277.24 6.99806 276.945 6.99462C276.921 6.99462 276.909 6.95511 276.909 6.87607C276.909 6.79704 276.921 6.75752 276.945 6.75752C277.19 6.76783 277.395 6.77299 277.558 6.77299C277.721 6.77299 277.909 6.77041 278.12 6.76526C278.331 6.7601 278.5 6.75752 278.628 6.75752C279.195 6.75752 279.666 6.9027 280.042 7.19307C280.419 7.48343 280.607 7.88203 280.607 8.38887C280.607 8.9696 280.436 9.42919 280.094 9.76766C279.754 10.1044 279.305 10.2728 278.749 10.2728C278.64 10.2728 278.462 10.2702 278.213 10.2651C277.965 10.2599 277.752 10.2573 277.574 10.2573C277.397 10.2573 277.196 10.2625 276.97 10.2728C276.945 10.2728 276.932 10.2333 276.932 10.1542C276.932 10.0752 276.945 10.0357 276.97 10.0357C277.249 10.0357 277.388 9.93518 277.388 9.73416ZM278.014 9.55633C278.014 9.81405 278.088 9.97384 278.236 10.0357C278.303 10.0597 278.415 10.0718 278.573 10.0718C278.946 10.0718 279.261 9.92573 279.517 9.63365C279.774 9.34157 279.903 8.93352 279.903 8.40949C279.903 8.04353 279.772 7.71022 279.509 7.40955C279.248 7.10888 278.884 6.95854 278.416 6.95854H278.21C278.08 6.95854 278.014 7.02727 278.014 7.16472V9.55633ZM282.089 10.2779C281.944 10.2642 281.765 10.2573 281.55 10.2573C281.304 10.2573 281.109 10.2642 280.963 10.2779C280.938 10.2779 280.926 10.2453 280.924 10.18C280.922 10.1147 280.935 10.0821 280.963 10.0821C281.141 10.0821 281.231 10.0176 281.233 9.88879V8.82184C281.233 8.60707 281.154 8.49969 280.996 8.49969C280.969 8.49969 280.954 8.46791 280.952 8.40434C280.952 8.34077 280.967 8.30898 280.996 8.30898C281.08 8.30898 281.24 8.25143 281.475 8.13631C281.584 8.08305 281.656 8.04096 281.692 8.01003C281.712 7.99285 281.739 7.9834 281.772 7.98168C281.822 7.98168 281.844 8.00488 281.839 8.05126C281.828 8.20246 281.823 8.35193 281.823 8.49969V9.88879C281.823 10.0194 281.912 10.0838 282.089 10.0821C282.113 10.0821 282.125 10.1147 282.125 10.18C282.125 10.2453 282.113 10.2779 282.089 10.2779ZM281.844 7.2008C281.844 7.3245 281.793 7.42158 281.692 7.49202C281.625 7.53841 281.551 7.55902 281.47 7.55387C281.34 7.55387 281.239 7.5049 281.169 7.40697C281.122 7.3434 281.1 7.27468 281.102 7.2008C281.102 7.08053 281.151 6.98603 281.249 6.91731C281.316 6.86748 281.389 6.84429 281.47 6.84773C281.604 6.84773 281.706 6.89669 281.777 6.99462C281.822 7.06163 281.844 7.13036 281.844 7.2008ZM286.246 10.2779C286.108 10.2642 285.918 10.2573 285.676 10.2573C285.444 10.2573 285.26 10.2642 285.122 10.2779C285.095 10.2779 285.081 10.2453 285.081 10.18C285.081 10.1147 285.095 10.0821 285.122 10.0821C285.294 10.0821 285.38 10.0245 285.38 9.90941V8.68525C285.38 8.4241 285.25 8.29352 284.991 8.29352C284.87 8.29352 284.768 8.34678 284.684 8.4533C284.607 8.5478 284.568 8.66034 284.568 8.79091V9.8991C284.568 10.0228 284.657 10.0838 284.836 10.0821C284.863 10.0821 284.877 10.1147 284.877 10.18C284.879 10.2453 284.865 10.2779 284.836 10.2779C284.699 10.2642 284.51 10.2573 284.272 10.2573C284.047 10.2573 283.862 10.2642 283.718 10.2779C283.693 10.2779 283.681 10.2453 283.681 10.18C283.681 10.1147 283.693 10.0821 283.718 10.0821C283.889 10.0821 283.976 10.028 283.978 9.91971V8.80122C283.978 8.57271 283.939 8.42324 283.862 8.35279C283.815 8.31328 283.732 8.29352 283.612 8.29352C283.524 8.29352 283.442 8.32187 283.364 8.37857C283.234 8.4765 283.169 8.58388 283.169 8.70071V9.91456C283.169 10.028 283.254 10.0838 283.424 10.0821C283.448 10.0821 283.461 10.1147 283.462 10.18C283.464 10.2453 283.451 10.2779 283.424 10.2779C283.279 10.2642 283.09 10.2573 282.857 10.2573C282.621 10.2573 282.432 10.2642 282.287 10.2779C282.263 10.2779 282.251 10.2453 282.251 10.18C282.251 10.1147 282.263 10.0821 282.287 10.0821C282.481 10.0821 282.578 10.0228 282.578 9.90425V8.8373C282.578 8.61223 282.499 8.49969 282.341 8.49969C282.314 8.49969 282.299 8.46791 282.297 8.40434C282.297 8.34077 282.312 8.30898 282.341 8.30898C282.425 8.30898 282.585 8.25143 282.821 8.13631C282.929 8.08305 283.001 8.04096 283.037 8.01003C283.058 7.99285 283.083 7.9834 283.112 7.98168C283.162 7.98168 283.186 8.00316 283.184 8.04611L283.169 8.22651C283.169 8.25744 283.175 8.27462 283.189 8.27806C283.203 8.27806 283.219 8.26947 283.238 8.25228C283.379 8.09422 283.567 8.01518 283.803 8.01518C284.045 8.01518 284.23 8.12428 284.357 8.34249C284.37 8.36997 284.384 8.38372 284.398 8.38372C284.415 8.38372 284.438 8.36826 284.467 8.33733C284.605 8.19301 284.765 8.09594 284.947 8.04611C285.021 8.02549 285.093 8.01518 285.163 8.01518C285.382 8.01518 285.558 8.07446 285.692 8.19301C285.879 8.35795 285.973 8.57099 285.973 8.83215V9.8991C285.973 10.0228 286.064 10.0838 286.246 10.0821C286.273 10.0821 286.287 10.1147 286.287 10.18C286.287 10.2453 286.273 10.2779 286.246 10.2779ZM287.63 10.2779C287.485 10.2642 287.306 10.2573 287.091 10.2573C286.845 10.2573 286.649 10.2642 286.503 10.2779C286.479 10.2779 286.466 10.2453 286.465 10.18C286.463 10.1147 286.476 10.0821 286.503 10.0821C286.682 10.0821 286.772 10.0176 286.774 9.88879V8.82184C286.774 8.60707 286.695 8.49969 286.537 8.49969C286.509 8.49969 286.495 8.46791 286.493 8.40434C286.493 8.34077 286.508 8.30898 286.537 8.30898C286.621 8.30898 286.781 8.25143 287.016 8.13631C287.125 8.08305 287.197 8.04096 287.233 8.01003C287.253 7.99285 287.28 7.9834 287.313 7.98168C287.362 7.98168 287.385 8.00488 287.38 8.05126C287.369 8.20246 287.364 8.35193 287.364 8.49969V9.88879C287.364 10.0194 287.453 10.0838 287.63 10.0821C287.654 10.0821 287.666 10.1147 287.666 10.18C287.666 10.2453 287.654 10.2779 287.63 10.2779ZM287.385 7.2008C287.385 7.3245 287.334 7.42158 287.233 7.49202C287.166 7.53841 287.092 7.55902 287.011 7.55387C286.881 7.55387 286.78 7.5049 286.71 7.40697C286.663 7.3434 286.641 7.27468 286.643 7.2008C286.643 7.08053 286.692 6.98603 286.79 6.91731C286.857 6.86748 286.93 6.84429 287.011 6.84773C287.145 6.84773 287.247 6.89669 287.318 6.99462C287.362 7.06163 287.385 7.13036 287.385 7.2008ZM289.465 10.0254C289.277 10.2195 289.042 10.3166 288.758 10.3166C288.382 10.3132 288.166 10.156 288.109 9.84498C288.099 9.78828 288.094 9.72557 288.094 9.65684V8.41465C288.094 8.36138 288.067 8.33561 288.014 8.33733H287.872C287.844 8.33733 287.83 8.30555 287.828 8.24198C287.828 8.17841 287.843 8.14662 287.872 8.14662C287.977 8.14662 288.091 8.09508 288.215 7.99199C288.335 7.89406 288.414 7.78667 288.452 7.66984C288.459 7.64923 288.496 7.64751 288.563 7.66469C288.636 7.68531 288.679 7.71194 288.689 7.74458V7.98684C288.689 8.0401 288.716 8.06673 288.769 8.06673H289.323C289.347 8.06673 289.359 8.11226 289.359 8.20332C289.359 8.29266 289.347 8.33733 289.323 8.33733H288.769C288.716 8.33733 288.689 8.3631 288.689 8.41465V9.48675C288.689 9.69464 288.719 9.83209 288.779 9.8991C288.825 9.95236 288.899 9.97813 289.001 9.97641C289.088 9.97641 289.197 9.93604 289.328 9.85529C289.345 9.84154 289.379 9.86302 289.429 9.91971C289.459 9.95923 289.473 9.9893 289.47 10.0099C289.47 10.0168 289.468 10.0219 289.465 10.0254ZM291.372 8.31929C291.372 8.42066 291.336 8.50227 291.266 8.56412C291.22 8.60707 291.166 8.62769 291.106 8.62597C291.019 8.62597 290.931 8.58216 290.843 8.49454C290.804 8.45502 290.762 8.43526 290.717 8.43526C290.643 8.43526 290.578 8.48509 290.521 8.58474C290.465 8.67924 290.436 8.78834 290.436 8.91204V9.88879C290.436 10.0194 290.525 10.0838 290.702 10.0821C290.726 10.0821 290.739 10.1147 290.74 10.18C290.742 10.2453 290.729 10.2779 290.702 10.2779C290.557 10.2642 290.378 10.2573 290.163 10.2573C289.917 10.2573 289.721 10.2642 289.575 10.2779C289.551 10.2779 289.538 10.2453 289.537 10.18C289.535 10.1147 289.548 10.0821 289.575 10.0821C289.754 10.0821 289.844 10.0176 289.846 9.88879V8.84246C289.846 8.61395 289.767 8.49969 289.609 8.49969C289.581 8.49969 289.567 8.46791 289.565 8.40434C289.565 8.34077 289.58 8.30898 289.609 8.30898C289.697 8.30898 289.86 8.24971 290.099 8.13116C290.2 8.0779 290.269 8.03752 290.305 8.01003C290.325 7.99285 290.35 7.9834 290.38 7.98168C290.422 7.98168 290.447 7.99972 290.452 8.0358L290.436 8.22651C290.436 8.26603 290.447 8.28579 290.47 8.28579C290.494 8.28407 290.525 8.26173 290.562 8.21878C290.679 8.08133 290.824 8.01347 290.995 8.01518C291.116 8.01518 291.215 8.05384 291.292 8.13116C291.345 8.1827 291.372 8.24541 291.372 8.31929ZM292.645 10.2779C292.501 10.2642 292.321 10.2573 292.106 10.2573C291.861 10.2573 291.665 10.2642 291.519 10.2779C291.495 10.2779 291.482 10.2453 291.48 10.18C291.478 10.1147 291.491 10.0821 291.519 10.0821C291.697 10.0821 291.787 10.0176 291.789 9.88879V8.82184C291.789 8.60707 291.71 8.49969 291.552 8.49969C291.525 8.49969 291.51 8.46791 291.508 8.40434C291.508 8.34077 291.523 8.30898 291.552 8.30898C291.636 8.30898 291.796 8.25143 292.031 8.13631C292.14 8.08305 292.212 8.04096 292.248 8.01003C292.269 7.99285 292.295 7.9834 292.328 7.98168C292.378 7.98168 292.4 8.00488 292.395 8.05126C292.385 8.20246 292.379 8.35193 292.379 8.49969V9.88879C292.379 10.0194 292.468 10.0838 292.645 10.0821C292.669 10.0821 292.681 10.1147 292.681 10.18C292.681 10.2453 292.669 10.2779 292.645 10.2779ZM292.4 7.2008C292.4 7.3245 292.349 7.42158 292.248 7.49202C292.181 7.53841 292.107 7.55902 292.026 7.55387C291.896 7.55387 291.795 7.5049 291.725 7.40697C291.678 7.3434 291.656 7.27468 291.658 7.2008C291.658 7.08053 291.707 6.98603 291.805 6.91731C291.872 6.86748 291.946 6.84429 292.026 6.84773C292.16 6.84773 292.263 6.89669 292.333 6.99462C292.378 7.06163 292.4 7.13036 292.4 7.2008ZM295.39 9.73416C295.39 9.93518 295.534 10.0357 295.822 10.0357C295.847 10.0357 295.859 10.0752 295.859 10.1542C295.86 10.2333 295.848 10.2728 295.822 10.2728C295.604 10.2625 295.356 10.2573 295.078 10.2573C294.825 10.2573 294.585 10.2625 294.356 10.2728C294.335 10.2728 294.325 10.2333 294.325 10.1542C294.325 10.0752 294.335 10.0357 294.356 10.0357C294.628 10.0357 294.763 9.93518 294.763 9.73416V7.28069C294.763 7.09342 294.617 6.99806 294.325 6.99462C294.301 6.99462 294.288 6.95511 294.286 6.87607C294.286 6.79704 294.299 6.75752 294.325 6.75752C294.571 6.76783 294.817 6.77299 295.062 6.77299C295.164 6.77299 295.285 6.77041 295.426 6.76526C295.568 6.7601 295.709 6.75752 295.848 6.75752C296.221 6.75752 296.533 6.84429 296.784 7.01782C297.055 7.20853 297.191 7.45594 297.191 7.76004C297.191 8.08649 297.043 8.33647 296.748 8.51C296.509 8.65089 296.204 8.72133 295.833 8.72133C295.678 8.72133 295.56 8.71789 295.48 8.71102C295.42 8.70758 295.39 8.73422 295.39 8.79091V9.73416ZM296.531 7.76004C296.531 7.55215 296.461 7.37605 296.32 7.23172C296.152 7.05304 295.912 6.9637 295.601 6.9637C295.487 6.9637 295.42 6.97572 295.4 6.99978C295.393 7.01009 295.39 7.02297 295.39 7.03844V8.40949C295.39 8.46275 295.416 8.49454 295.469 8.50485C295.533 8.51172 295.602 8.51516 295.676 8.51516C296.105 8.51516 296.372 8.3674 296.477 8.07188C296.513 7.98082 296.531 7.87688 296.531 7.76004ZM299.101 8.68009C299.101 8.81067 299.023 8.8751 298.869 8.87338H297.876C297.813 8.87338 297.781 8.89658 297.781 8.94297C297.781 9.35188 297.878 9.6388 298.072 9.80374C298.177 9.8948 298.307 9.94033 298.462 9.94033C298.602 9.94033 298.745 9.89308 298.889 9.79859C298.924 9.78141 298.966 9.80374 299.016 9.86559C299.062 9.92573 299.075 9.96524 299.054 9.98414C298.974 10.0683 298.858 10.1439 298.709 10.2109C298.558 10.2814 298.384 10.3166 298.188 10.3166C297.956 10.3166 297.748 10.223 297.565 10.0357C297.319 9.79 297.194 9.48933 297.191 9.13368C297.191 8.84847 297.282 8.59848 297.464 8.38372C297.675 8.13803 297.922 8.01518 298.204 8.01518C298.51 8.01518 298.752 8.11655 298.931 8.31929C299.044 8.47564 299.101 8.59591 299.101 8.68009ZM297.812 8.57443C297.812 8.62082 297.844 8.64316 297.907 8.64144H298.431C298.494 8.64144 298.526 8.62082 298.526 8.57959C298.526 8.46275 298.478 8.36568 298.382 8.28836C298.321 8.23854 298.264 8.21534 298.209 8.21878C298.101 8.21878 298.004 8.25572 297.918 8.3296C297.847 8.39832 297.812 8.47993 297.812 8.57443ZM301.036 10.0254C300.849 10.2195 300.613 10.3166 300.33 10.3166C299.954 10.3132 299.737 10.156 299.681 9.84498C299.67 9.78828 299.665 9.72557 299.665 9.65684V8.41465C299.665 8.36138 299.638 8.33561 299.585 8.33733H299.443C299.416 8.33733 299.401 8.30555 299.4 8.24198C299.4 8.17841 299.414 8.14662 299.443 8.14662C299.548 8.14662 299.662 8.09508 299.786 7.99199C299.906 7.89406 299.985 7.78667 300.023 7.66984C300.03 7.64923 300.067 7.64751 300.134 7.66469C300.208 7.68531 300.25 7.71194 300.26 7.74458V7.98684C300.26 8.0401 300.287 8.06673 300.34 8.06673H300.894C300.918 8.06673 300.93 8.11226 300.93 8.20332C300.93 8.29266 300.918 8.33733 300.894 8.33733H300.34C300.287 8.33733 300.26 8.3631 300.26 8.41465V9.48675C300.26 9.69464 300.29 9.83209 300.351 9.8991C300.397 9.95236 300.471 9.97813 300.572 9.97641C300.66 9.97641 300.769 9.93604 300.9 9.85529C300.917 9.84154 300.95 9.86302 301 9.91971C301.031 9.95923 301.045 9.9893 301.041 10.0099C301.041 10.0168 301.04 10.0219 301.036 10.0254ZM302.943 8.31929C302.943 8.42066 302.908 8.50227 302.838 8.56412C302.791 8.60707 302.738 8.62769 302.678 8.62597C302.59 8.62597 302.503 8.58216 302.415 8.49454C302.375 8.45502 302.333 8.43526 302.289 8.43526C302.215 8.43526 302.149 8.48509 302.093 8.58474C302.036 8.67924 302.008 8.78834 302.008 8.91204V9.88879C302.008 10.0194 302.096 10.0838 302.273 10.0821C302.297 10.0821 302.31 10.1147 302.312 10.18C302.314 10.2453 302.301 10.2779 302.273 10.2779C302.129 10.2642 301.949 10.2573 301.735 10.2573C301.489 10.2573 301.293 10.2642 301.147 10.2779C301.123 10.2779 301.11 10.2453 301.108 10.18C301.107 10.1147 301.119 10.0821 301.147 10.0821C301.326 10.0821 301.416 10.0176 301.418 9.88879V8.84246C301.418 8.61395 301.338 8.49969 301.18 8.49969C301.153 8.49969 301.138 8.46791 301.137 8.40434C301.137 8.34077 301.151 8.30898 301.18 8.30898C301.268 8.30898 301.431 8.24971 301.67 8.13116C301.771 8.0779 301.84 8.03752 301.876 8.01003C301.897 7.99285 301.922 7.9834 301.951 7.98168C301.994 7.98168 302.018 7.99972 302.023 8.0358L302.008 8.22651C302.008 8.26603 302.019 8.28579 302.041 8.28579C302.065 8.28407 302.096 8.26173 302.134 8.21878C302.251 8.08133 302.395 8.01347 302.567 8.01518C302.687 8.01518 302.786 8.05384 302.863 8.13116C302.917 8.1827 302.943 8.24541 302.943 8.31929ZM305.17 10.0305C305.072 10.2247 304.909 10.3218 304.68 10.3218C304.522 10.3218 304.383 10.2513 304.263 10.1104C304.239 10.0795 304.221 10.0632 304.211 10.0615C304.191 10.0615 304.166 10.0761 304.136 10.1053C303.996 10.2462 303.825 10.3166 303.624 10.3166C303.409 10.3166 303.256 10.2444 303.165 10.1001C303.118 10.0262 303.097 9.93947 303.1 9.83982C303.1 9.63193 303.282 9.43349 303.644 9.2445L304.036 9.05894C304.096 9.02458 304.126 8.9842 304.126 8.93781V8.44815C304.126 8.32444 304.036 8.26259 303.856 8.26259C303.718 8.26259 303.618 8.3064 303.557 8.39403C303.543 8.41808 303.533 8.48337 303.528 8.58989C303.528 8.65003 303.525 8.69384 303.518 8.72133C303.475 8.87252 303.396 8.94812 303.281 8.94812C303.126 8.94812 303.049 8.88111 303.049 8.7471C303.049 8.63027 303.096 8.50742 303.191 8.37857C303.244 8.30469 303.301 8.24799 303.361 8.20847C303.569 8.0779 303.795 8.01347 304.041 8.01518C304.235 8.01518 304.403 8.06415 304.544 8.16208C304.657 8.23596 304.715 8.32702 304.716 8.43526V9.74447C304.716 9.94205 304.775 10.0391 304.892 10.0357C304.945 10.0391 305.006 10.0091 305.075 9.94549C305.088 9.93174 305.111 9.93861 305.144 9.9661C305.168 9.99188 305.177 10.0134 305.17 10.0305ZM304.126 9.75993V9.29088C304.126 9.25137 304.113 9.23247 304.087 9.23419C304.077 9.23419 304.067 9.2359 304.057 9.23934C303.814 9.36305 303.693 9.52627 303.693 9.729C303.693 9.93002 303.755 10.0305 303.879 10.0305C304.044 10.0288 304.126 9.93861 304.126 9.75993ZM307.93 10.2779C307.793 10.2642 307.595 10.2573 307.337 10.2573C307.081 10.2573 306.881 10.2642 306.737 10.2779C306.713 10.2779 306.7 10.2453 306.698 10.18C306.696 10.1147 306.709 10.0821 306.737 10.0821C306.864 10.0821 306.928 10.058 306.928 10.0099C306.928 9.98243 306.905 9.94033 306.861 9.88363L306.358 9.30635C306.315 9.25309 306.264 9.22731 306.206 9.22903C306.178 9.22903 306.164 9.25824 306.162 9.31666V9.88879C306.162 10.0194 306.256 10.0838 306.443 10.0821C306.467 10.0821 306.479 10.1147 306.479 10.18C306.479 10.2453 306.467 10.2779 306.443 10.2779C306.299 10.2642 306.114 10.2573 305.889 10.2573C305.624 10.2573 305.42 10.2642 305.276 10.2779C305.252 10.2779 305.239 10.2453 305.239 10.18C305.239 10.1147 305.252 10.0821 305.276 10.0821C305.473 10.0821 305.572 10.0211 305.572 9.8991V7.26523C305.558 7.06077 305.479 6.95339 305.335 6.94308C305.307 6.94308 305.293 6.9113 305.291 6.84773C305.291 6.78415 305.306 6.75237 305.335 6.75237C305.419 6.75237 305.577 6.69481 305.809 6.5797C305.922 6.523 305.996 6.48005 306.031 6.45084C306.051 6.43366 306.076 6.42507 306.105 6.42507C306.152 6.42507 306.176 6.44826 306.178 6.49465C306.167 6.64241 306.162 6.79189 306.162 6.94308V8.89658C306.162 8.96015 306.18 8.99107 306.216 8.98936C306.29 8.98936 306.359 8.95671 306.422 8.89142L306.817 8.4533C306.873 8.38973 306.902 8.34334 306.902 8.31414C306.902 8.26087 306.83 8.2351 306.685 8.23682C306.658 8.23682 306.644 8.2059 306.644 8.14404C306.644 8.08219 306.658 8.05126 306.685 8.05126C306.787 8.06157 306.973 8.06673 307.245 8.06673C307.483 8.06673 307.658 8.06157 307.768 8.05126C307.792 8.05126 307.804 8.08219 307.804 8.14404C307.804 8.2059 307.792 8.23682 307.768 8.23682C307.589 8.23682 307.433 8.29781 307.299 8.4198L306.76 8.90689C306.743 8.92407 306.733 8.93953 306.732 8.95328C306.732 8.97733 306.741 9.00052 306.76 9.02286L307.608 9.94549C307.689 10.0365 307.796 10.0821 307.93 10.0821C307.958 10.0821 307.971 10.1147 307.971 10.18C307.971 10.2453 307.958 10.2779 307.93 10.2779ZM309.19 10.2779C309.046 10.2642 308.866 10.2573 308.652 10.2573C308.406 10.2573 308.21 10.2642 308.064 10.2779C308.04 10.2779 308.027 10.2453 308.025 10.18C308.024 10.1147 308.037 10.0821 308.064 10.0821C308.243 10.0821 308.333 10.0176 308.335 9.88879V8.82184C308.335 8.60707 308.256 8.49969 308.098 8.49969C308.07 8.49969 308.055 8.46791 308.054 8.40434C308.054 8.34077 308.068 8.30898 308.098 8.30898C308.182 8.30898 308.342 8.25143 308.577 8.13631C308.685 8.08305 308.757 8.04096 308.793 8.01003C308.814 7.99285 308.841 7.9834 308.873 7.98168C308.923 7.98168 308.945 8.00488 308.94 8.05126C308.93 8.20246 308.925 8.35193 308.925 8.49969V9.88879C308.925 10.0194 309.013 10.0838 309.19 10.0821C309.214 10.0821 309.226 10.1147 309.226 10.18C309.226 10.2453 309.214 10.2779 309.19 10.2779ZM308.945 7.2008C308.945 7.3245 308.895 7.42158 308.793 7.49202C308.726 7.53841 308.653 7.55902 308.572 7.55387C308.441 7.55387 308.341 7.5049 308.27 7.40697C308.224 7.3434 308.202 7.27468 308.203 7.2008C308.203 7.08053 308.252 6.98603 308.35 6.91731C308.417 6.86748 308.491 6.84429 308.572 6.84773C308.706 6.84773 308.808 6.89669 308.878 6.99462C308.923 7.06163 308.945 7.13036 308.945 7.2008ZM310.149 10.3166C309.9 10.3166 309.694 10.2651 309.53 10.162C309.481 10.0451 309.457 9.85529 309.458 9.59241C309.458 9.56149 309.488 9.54602 309.549 9.54602C309.616 9.54602 309.651 9.55977 309.654 9.58726C309.661 9.67832 309.719 9.78742 309.827 9.91456C309.94 10.0451 310.076 10.1104 310.234 10.1104C310.318 10.1104 310.396 10.0752 310.466 10.0048C310.523 9.94463 310.551 9.87934 310.551 9.8089C310.551 9.601 310.403 9.4584 310.108 9.38109C309.805 9.30033 309.601 9.17233 309.494 8.99709C309.441 8.90946 309.416 8.8038 309.42 8.68009C309.42 8.48251 309.506 8.32015 309.68 8.19301C309.838 8.07274 310.03 8.01347 310.255 8.01518C310.466 8.01518 310.652 8.04611 310.814 8.10796C310.881 8.28665 310.914 8.45073 310.914 8.6002C310.914 8.63113 310.888 8.64659 310.835 8.64659C310.778 8.64659 310.749 8.638 310.747 8.62082C310.716 8.5332 310.647 8.43612 310.541 8.3296C310.47 8.25916 310.363 8.22479 310.219 8.22651C310.114 8.22651 310.029 8.27032 309.963 8.35795C309.924 8.41121 309.905 8.46533 309.907 8.52031C309.907 8.69212 310.051 8.81411 310.34 8.88627C310.615 8.95671 310.806 9.05636 310.914 9.18522C310.999 9.29003 311.042 9.42576 311.046 9.59241C311.046 9.82092 310.951 10.0056 310.762 10.1465C310.599 10.2633 310.395 10.32 310.149 10.3166Z" fill="#111B2D"/>
</g>
<defs>
<linearGradient id="paint0_linear_5413_38" x1="265.743" y1="97.6667" x2="265.743" y2="210.45" gradientUnits="userSpaceOnUse">
<stop stop-color="#324B7B"/>
<stop offset="0.416774" stop-color="#ADCCEE"/>
<stop offset="0.697028" stop-color="#F7F4F2"/>
</linearGradient>
<clipPath id="clip0_5413_38">
<rect width="325" height="176" fill="white"/>
</clipPath>
</defs>
</svg>
