<svg width="737" height="798" viewBox="0 0 737 798" fill="none" xmlns="http://www.w3.org/2000/svg">
<mask id="mask0_5358_56" style="mask-type:alpha" maskUnits="userSpaceOnUse" x="0" y="0" width="737" height="798">
<rect width="737" height="798" fill="url(#paint0_linear_5358_56)"/>
</mask>
<g mask="url(#mask0_5358_56)">
<path d="M736.825 651.739L725.815 607.722L708.876 573.212L703.794 562.859L679.234 531.54L663.989 519.689L641.122 493.448L623.337 479.058L540.338 425.73L521.706 412.187L508.155 399.489L506.66 397.373L503.073 397.796L498.839 399.489L492.063 402.029L485.288 404.568L475.125 405.415L465.809 407.108L456.492 408.801H443.789H432.779L424.309 407.954L415.84 406.261L408.218 403.722L398.902 402.029L390.432 400.336H382.81L376.035 398.643L367.565 396.104H357.402L345.545 398.643L334.535 402.029L323.525 407.954L319.291 411.34L303.199 423.191L283.72 434.195L260.853 447.739L234.598 460.436L217.66 461.282L208.344 462.129C203.827 463.257 194.623 465.684 193.946 466.361C193.268 467.038 185.759 470.029 182.089 471.44L166.844 473.133H149.059L141.436 475.672L132.967 479.058L121.957 484.983L110.1 495.141L101.631 506.145L93.1617 518.843L85.5394 532.386L78.764 549.316L72.8355 568.785L70.2948 583.175L69.4478 595.872L66.9071 615.341V628.884L58.4378 643.274L43.1932 667.822L29.6424 689.831L17.7854 709.3L10.1631 728.768L4.23462 744.852L0 768.553L1.69385 784.636L5.92847 798.179L736.825 651.739Z" fill="url(#paint1_linear_5358_56)"/>
<path d="M162.61 192.15L163.456 193.843L165.15 195.536L166.844 197.229L170.232 198.922L177.007 200.615H181.242L184.63 202.308L191.405 207.387L199.027 211.619L196.487 204.001L192.252 199.768L188.864 195.536L184.358 192.725L183.783 192.15L181.242 190.457L179.276 189.339L177.007 188.764L175.313 187.918L171.926 187.071H168.538L165.997 187.918L162.61 188.764V192.15Z" fill="#111B2D"/>
<path fill-rule="evenodd" clip-rule="evenodd" d="M497.992 385.146L492.063 375.835L459.033 303.038L455.646 292.034L454.032 302.192L450.564 308.964H444.635C443.958 308.964 439.272 305.578 437.013 303.885L415.84 291.188L398.902 285.262L385.351 274.258L370.953 259.022L359.943 247.171L349.598 241.246L349.78 238.706L348.933 234.474L345.545 231.088L339.617 225.163L332.841 220.93L327.76 218.391L323.525 217.544L320.138 218.391L316.75 220.084L313.362 221.777L310.821 224.316L308.281 227.702L296.424 229.395L287.954 232.781L276.097 235.32H265.934H257.465L251.537 231.934L246.455 226.009L244.761 219.237V211.619V205.694V202.308L242.22 198.922L237.986 195.536L231.21 191.304L224.435 187.071L220.2 183.685L216.813 180.299V176.067L217.66 170.142L219.354 163.37L222.741 153.212L226.129 143.054L226.976 132.897L227.823 125.278V120.2L226.976 114.274L225.282 110.042L222.741 106.656L221.047 104.963H217.66H208.344L196.839 101.965L195.64 104.963L189.711 112.581L184.63 121.893L181.242 131.204L178.701 144.747L177.007 154.059L176.16 159.137L165.997 180.299L163.456 184.532L162.61 187.918V188.764L165.997 187.918L168.538 187.071H171.926L175.313 187.918L177.007 188.764L179.276 189.339L181.242 190.457L183.783 192.15L184.358 192.725L188.864 195.536L192.252 199.768L196.487 204.001L199.027 211.619L191.405 207.387L184.63 202.308L181.242 200.615H177.007V202.308V204.001L175.313 206.54L168.538 212.465L165.15 215.851L161.763 220.93L156.681 231.088L149.059 247.171L145.671 259.868V270.026L146.518 273.412L149.059 275.951L151.6 276.798L155.834 277.97L159.222 278.491H163.456L165.997 277.644L168.538 276.798L171.079 277.644L171.188 277.97L171.926 280.183L174.467 281.876L176.16 285.262V286.955V290.341L175.313 291.188L174.467 292.881L173.62 296.266L174.467 300.499L176.16 303.038L177.854 305.578L180.395 308.117L182.936 309.81L184.63 310.657L187.17 312.35L188.864 314.889L185.477 319.121L182.936 323.354L182.089 326.74L182.936 330.972L183.783 332.665L188.017 335.204L198.18 338.59L202.415 341.13V342.823L201.568 346.209L200.721 349.594V353.827V354.673V358.906L201.568 365.677L203.262 369.063L206.65 373.296L214.272 375.835H221.894L238.833 373.296L265.511 366.101L288.801 367.37L293.036 369.91L298.964 377.528L303.199 423.238L319.291 411.387L323.525 408.001L334.535 402.076L345.545 398.69L357.402 396.151H367.565L376.035 398.69L382.81 400.383H390.432L398.902 402.076L408.218 403.769L415.84 406.308L424.309 408.001L432.779 408.848H443.789H456.492L465.809 407.155L475.125 405.462L485.288 404.615L492.063 402.076L498.839 399.537L503.073 397.844L506.66 397.42L505.166 395.304L497.992 385.146ZM192.252 223.47L187.17 226.009L182.936 218.391L192.252 223.47Z" fill="#FFDBE4"/>
<path d="M453.952 274.258V260.715V253.943L457.339 242.092L466.656 231.934L471.737 226.855L472.584 223.47L475.125 218.391L480.206 209.926L481.9 204.001L484.441 201.461L485.288 192.15L484.441 186.225L485.288 181.992V170.142L486.135 166.756L487.829 159.984V148.133L486.982 141.361L486.135 132.05L482.747 124.432L480.206 119.353L479.359 115.967H484.441L486.135 115.121L482.747 112.581L475.972 107.502L470.043 99.8841L467.502 95.6518L462.421 82.9546L460.727 77.0293L459.88 67.7181L459.033 63.4857L456.492 58.4068L453.952 54.1744L442.095 44.8632L437.013 40.6308L429.391 33.0126L420.075 28.7802V27.0872L423.462 24.5478L429.391 23.7013H439.554L431.085 22.0084H425.156L418.381 23.7013L414.993 22.8548L408.218 21.1619L402.289 19.4689L393.82 16.083L400.595 11.0042L398.055 9.31123L392.126 8.46476H387.892L385.351 7.61828H382.81L380.269 9.31123L378.575 10.1577L376.035 11.8507H369.259L365.872 13.5436H357.402L348.933 11.8507L338.77 8.46476L326.913 4.23238L320.138 2.53943L309.128 0.846476L298.117 0H288.801L277.791 0.846476L269.322 2.53943L261.7 3.3859L256.618 6.05898L245.608 11.8507L236.292 16.083L228.67 22.0084L220.2 27.0872L215.966 31.3196L213.425 36.3985L211.731 37.2449L208.344 34.7055L205.803 35.552L202.415 38.9379L200.721 41.4773L197.333 40.6308L195.64 39.7844H193.099L189.711 41.4773H187.17L185.477 42.3238V49.0956L186.323 64.3322L189.711 79.5687L193.946 89.7264L195.64 93.1123L196.487 98.1912L197.333 100.731L196.839 101.965L208.344 104.963H217.66H221.047L222.741 106.656L225.282 110.042L226.976 114.274L227.823 120.2V125.278L226.976 132.897L226.129 143.054L222.741 153.212L219.354 163.37L217.66 170.142L216.813 176.067V180.299L220.2 183.685L224.435 187.071L231.21 191.304L237.986 195.536L242.22 198.922L244.761 202.308V205.694V211.619V219.237L246.455 226.009L251.537 231.934L257.465 235.32H265.934H276.097L287.954 232.781L296.424 229.395L308.281 227.702L310.821 224.316L313.362 221.777L316.75 220.084L320.138 218.391L323.525 217.544L327.76 218.391L332.841 220.93L339.617 225.163L345.545 231.088L348.933 234.474L349.78 238.706L349.598 241.246L359.943 247.171L370.953 259.022L385.351 274.258L398.902 285.262L415.84 291.188L437.013 303.885C439.272 305.578 443.958 308.964 444.635 308.964H450.564L454.032 302.192L455.646 292.034L454.032 275.105L453.952 274.258Z" fill="#111B2D"/>
<path d="M736.825 651.786L725.815 607.77L708.876 573.259M508.155 399.537L521.706 412.234L540.338 425.777L623.337 479.105L641.122 493.495L663.989 519.736L679.234 531.587L703.794 562.906L708.876 573.259M508.155 399.537L506.66 397.42M508.155 399.537L497.992 385.146M497.992 385.146L492.063 375.835L459.033 303.038L455.646 292.034M497.992 385.146L505.166 395.304L506.66 397.42M455.646 292.034L454.032 275.105L453.952 274.258M455.646 292.034L454.032 302.192L450.564 308.964M455.646 292.034L453.952 274.258M453.952 274.258V260.715V253.943L457.339 242.092L466.656 231.934L471.737 226.855L472.584 223.47L475.125 218.391L480.206 209.926L481.9 204.001L484.441 201.461L485.288 192.15L484.441 186.225L485.288 181.992V170.142L486.135 166.756L487.829 159.984V148.133L486.982 141.361L486.135 132.05L482.747 124.432L480.206 119.353L479.359 115.967H484.441L486.135 115.121L482.747 112.581L475.972 107.502L470.043 99.8841L467.502 95.6518L462.421 82.9546L460.727 77.0293L459.88 67.7181L459.033 63.4857L456.492 58.4068L453.952 54.1744L442.095 44.8632L437.013 40.6308L429.391 33.0126L420.075 28.7802V27.0872L423.462 24.5478L429.391 23.7013H439.554L431.085 22.0084H425.156L418.381 23.7013L414.993 22.8548L408.218 21.1619L402.289 19.4689L393.82 16.083L400.595 11.0042L398.055 9.31123L392.126 8.46476H387.892L385.351 7.61828H382.81L380.269 9.31123L378.575 10.1577L376.035 11.8507H369.259L365.872 13.5436H357.402L348.933 11.8507L338.77 8.46476L326.913 4.23238L320.138 2.53943L309.128 0.846476L298.117 0H288.801L277.791 0.846476L269.322 2.53943L261.7 3.3859L256.618 6.05898L245.608 11.8507L236.292 16.083L228.67 22.0084L220.2 27.0872L215.966 31.3196L213.425 36.3985L211.731 37.2449L208.344 34.7055L205.803 35.552L202.415 38.9379L200.721 41.4773L197.333 40.6308L195.64 39.7844H193.099L189.711 41.4773H187.17L185.477 42.3238V49.0956L186.323 64.3322L189.711 79.5687L193.946 89.7264L195.64 93.1123L196.487 98.1912L197.333 100.731M197.333 100.731L195.64 104.963M197.333 100.731L196.839 101.965M195.64 104.963L189.711 112.581L184.63 121.893L181.242 131.204L178.701 144.747L177.007 154.059L176.16 159.137L165.997 180.299L163.456 184.532L162.61 187.918M195.64 104.963L196.839 101.965M162.61 187.918V188.764M162.61 187.918V192.15M162.61 192.15L163.456 193.843L165.15 195.536L166.844 197.229L170.232 198.922L177.007 200.615M162.61 192.15V188.764M177.007 200.615V202.308V204.001L175.313 206.54L168.538 212.465L165.15 215.851L161.763 220.93L156.681 231.088L149.059 247.171L145.671 259.868V270.026L146.518 273.412L149.059 275.951L151.6 276.798L155.834 277.97L159.222 278.491H163.456L165.997 277.644L168.538 276.798L171.079 277.644M177.007 200.615H181.242L184.63 202.308L191.405 207.387L199.027 211.619L196.487 204.001L192.252 199.768L188.864 195.536L184.358 192.725L183.783 192.15L181.242 190.457L179.276 189.339L177.007 188.764L175.313 187.918L171.926 187.071H168.538L165.997 187.918L162.61 188.764M171.079 277.644L171.188 277.97L171.926 280.183M171.079 277.644L175.313 278.491L179.548 279.337H182.936L186.323 277.644L188.864 275.105L189.711 273.412V269.179V265.793M171.079 277.644L171.926 280.183M171.926 280.183L174.467 281.876L176.16 285.262V286.955V290.341L175.313 291.188L174.467 292.881L173.62 296.266L174.467 300.499L176.16 303.038L177.854 305.578L180.395 308.117L182.936 309.81L184.63 310.657L187.17 312.35L188.864 314.889L185.477 319.121L182.936 323.354L182.089 326.74L182.936 330.972L183.783 332.665L188.017 335.204L198.18 338.59L202.415 341.13V342.823L201.568 346.209L200.721 349.594M200.721 349.594V354.673M200.721 349.594V353.827V354.673M200.721 354.673V358.906L201.568 365.677L203.262 369.063L206.65 373.296L214.272 375.835H221.894L238.833 373.296L265.511 366.101M299.811 353.827L297.271 356.366L292.189 358.906L265.511 366.101M299.811 353.827L321.831 327.586M299.811 353.827L320.138 329.279M265.511 366.101L288.801 367.37L293.036 369.91L298.964 377.528L303.199 423.238M303.199 423.238L319.291 411.387L323.525 408.001M303.199 423.238L283.72 434.242L260.853 447.786L234.598 460.483M323.525 408.001L328.607 398.69L345.545 381.761L359.096 368.217M323.525 408.001L334.535 402.076L345.545 398.69L357.402 396.151H367.565L376.035 398.69L382.81 400.383H390.432L398.902 402.076L408.218 403.769L415.84 406.308L424.309 408.001L432.779 408.848H443.789H456.492L465.809 407.155L475.125 405.462L485.288 404.615L492.063 402.076L498.839 399.537L503.073 397.844L506.66 397.42M234.598 460.483L217.66 468.948L203.262 481.645M234.598 460.483L217.66 461.329L208.344 462.176C203.827 463.304 194.623 465.731 193.946 466.408C193.268 467.085 185.759 470.076 182.089 471.487L166.844 473.18H149.059L141.436 475.719L132.967 479.105L121.957 485.031L110.1 495.188L101.631 506.193L93.1617 518.89L85.5394 532.433L78.764 549.363L72.8355 568.832L70.2948 583.222L69.4478 595.919M69.4478 595.919V610.309L70.2948 624.699V643.322V656.019M69.4478 595.919L66.9071 615.388V628.932L58.4378 643.322L43.1932 667.869L29.6424 689.878L17.7854 709.347L10.1631 728.816L4.23462 744.899L0 768.6L1.69385 784.683L5.92847 798.227M70.2948 656.019L69.4478 671.255M70.2948 656.019L63.5194 667.869L55.897 678.027L47.4278 689.878L41.4993 700.035L36.4178 714.426L26.2547 723.737L16.0916 734.741L11.8569 740.666M708.876 573.259L691.938 562.06L670.764 542.591L653.826 525.661M188.017 231.934L192.252 229.395L200.721 222.623L182.936 212.465L179.548 211.619L176.16 212.465L182.936 218.391M182.936 218.391L192.252 223.47L187.17 226.009L182.936 218.391ZM202.415 231.934L193.946 238.706L192.252 241.246L191.405 244.631L190.558 250.557V252.25M196.839 101.965L208.344 104.963H217.66H221.047L222.741 106.656L225.282 110.042L226.976 114.274L227.823 120.2V125.278L226.976 132.897L226.129 143.054L222.741 153.212L219.354 163.37L217.66 170.142L216.813 176.067V180.299L220.2 183.685L224.435 187.071L231.21 191.304L237.986 195.536L242.22 198.922L244.761 202.308V205.694V211.619V219.237L246.455 226.009L251.537 231.934L257.465 235.32H265.934H276.097L287.954 232.781L296.424 229.395L308.281 227.702M302.352 282.723L308.281 286.955L318.444 292.034L324.372 292.881L330.301 291.188L333.688 288.648L341.311 282.723L346.392 277.644L348.086 272.565L348.933 261.561V250.557L349.598 241.246M315.903 250.557L310.821 252.25L307.434 256.482V263.254L309.974 270.026L315.903 273.412L319.291 271.719L320.138 267.486L322.678 263.254L326.913 264.1L330.301 265.793L331.995 263.254V259.022L330.301 253.943V250.557L327.76 245.743L323.525 242.939L320.138 237.013L316.75 234.027M450.564 308.964C448.87 308.964 445.313 308.964 444.635 308.964M450.564 308.964H444.635M444.635 308.964C443.958 308.964 439.272 305.578 437.013 303.885L415.84 291.188L398.902 285.262L385.351 274.258L370.953 259.022L359.943 247.171L349.598 241.246M349.598 241.246L349.78 238.706L348.933 234.474L345.545 231.088L339.617 225.163L332.841 220.93L327.76 218.391L323.525 217.544L320.138 218.391L316.75 220.084L313.362 221.777L310.821 224.316L308.281 227.702M308.281 227.702L307.434 230.241" stroke="#111B2D" stroke-width="3"/>
</g>
<defs>
<linearGradient id="paint0_linear_5358_56" x1="206" y1="97" x2="356.74" y2="800.67" gradientUnits="userSpaceOnUse">
<stop offset="0.798874"/>
<stop offset="0.89694" stop-opacity="0"/>
</linearGradient>
<linearGradient id="paint1_linear_5358_56" x1="415.367" y1="396.104" x2="415.367" y2="908.944" gradientUnits="userSpaceOnUse">
<stop stop-color="#324B7B"/>
<stop offset="0.416774" stop-color="#ADCCEE"/>
<stop offset="0.697028" stop-color="#F7F4F2"/>
</linearGradient>
</defs>
</svg>
